<?xml version="1.0" encoding="utf-8"?>
<!-- Generator: Adobe Illustrator 19.0.0, SVG Export Plug-In . SVG Version: 6.00 Build 0)  -->
<svg version="1.1" id="objects" xmlns="http://www.w3.org/2000/svg" xmlns:xlink="http://www.w3.org/1999/xlink" x="0px" y="0px"
	 viewBox="186.6 53.6 216.2 195.4" style="enable-background:new 186.6 53.6 216.2 195.4;" xml:space="preserve">
<g>
	<path d="M251.7,131.4c-0.8-0.4-1.4,0.7-0.7,1.2c18.6,13.2,38.6,30.2,42,54c-15.8-12.2-33.6-21.5-49.3-33.9
		c-13.2-10.4-29-22.1-34.7-38.5c-0.3-1-2.1-0.9-2,0.3c2,15.1,18.2,28.3,29.3,37.1c18.3,14.6,38,26.3,57.6,38.9
		c0.8,0.5,2-0.1,1.9-1.1C293.6,164.6,272.9,142.6,251.7,131.4z"/>
	<path d="M289.3,98.8c-0.9-0.5-1.6,0.8-0.8,1.4c11.4,8.5,22,16.3,29.6,28.7c6.3,10.3,9,22.1,9.7,34c-2.3-6.1-4.7-11.8-8.5-17.5
		c-4.8-7.1-11-13.3-17.9-18.4c-9.6-7.2-18.6-15-27.8-22.6c-8.8-7.3-19.2-13.2-27.4-21.2c-0.7-0.6-1.5,0.3-1,1
		c6.1,7.9,14.8,13.4,22.4,19.7c8.4,6.9,16.4,14.4,25.1,21c7.5,5.7,14.8,11.2,20.9,18.5c6,7.2,11.2,16.7,14.4,25.5
		c0.4,0.9,1.8,0.9,1.8-0.2C329.4,139.5,315.5,112.8,289.3,98.8z"/>
	<path d="M328.5,76.1c-1.2-0.5-2.2,1.1-1,1.8c17.5,9.4,40.3,23,38.4,44.9C360,110,344.5,100,333.2,94.1c-0.5-0.3-1,0.5-0.5,0.8
		c6.2,4.6,12.3,9.5,18,14.7c5.9,5.4,12.5,12.1,14,20.2c0.3,1.7,2.7,1.5,3.2,0C375.5,103,350,85.4,328.5,76.1z"/>
	<path d="M303,53.6h-0.8c-0.1,0-0.1,0.1,0,0.1L303,53.6C303.1,53.8,303.1,53.6,303,53.6z"/>
	<path d="M379.6,84.3c-7.4-8.7-16.1-14.6-26.9-18.4c-7.6-2.7-16.4-3.8-24.3-5.2c-7.6-1.3-15.2-1.6-23-1.2c-1.2,0.1-1.2,1.8,0,1.8
		c9.6,0.7,19.1,2.3,28.6,4.2c9.3,1.8,18.4,3.5,26.9,7.9c12.6,6.5,23,20.2,29.4,32.6c3,5.8,5.1,11.8,6.3,18
		c-4.3-6.5-10.5-12.2-15.5-16.8c-0.8-0.8-2.4,0.3-1.7,1.3c3.6,4.7,7.2,9.5,10.6,14.4c4.4,6.3,5.1,12.8,7.5,19.8
		c0.1,0.2,0.2,0.4,0.4,0.6c-0.1,2.7-0.4,5.4-0.8,8.1c-2.8-9.2-9-17.9-13.4-25.6c-0.7-1.2-2.5-0.1-1.9,1.1c3.2,6.3,6.5,12.4,8.9,19.1
		c2.3,6.3,2.4,12.6,3.3,19.1c-0.8,2.8-1.8,5.5-2.9,8.2c-0.7-11.3-5.8-23-10.2-32.3c-0.4-0.9-1.8-0.3-1.5,0.6
		c2.3,6.7,4.8,13.2,6.4,20.1c2,8.9,0.2,17.8-2,26.4c-1.4,2.3-2.8,4.5-4.3,6.7c-25.8,36.4-76.3,55.5-120.1,46.4
		c-6.8-10.6-8.6-22.3-9.2-34.8c0-0.9-1.4-0.9-1.4,0c-0.4,12,0,23.1,5.3,33.6c-1.9-0.5-3.8-1-5.6-1.6c0,0,0,0,0-0.1
		c-12.8-14.7-20.7-30.6-22.4-50.2c-0.1-0.8-1.3-0.9-1.3,0c0.3,17.7,5.1,33.8,15.9,47.3c-5.8-2.5-11.3-5.5-16.6-9.2
		c0.2-0.7,0.2-1.5-0.4-2.2c-11.2-13.6-11.3-33.3-10.8-50c0-0.9-1.4-0.9-1.4,0c-1.2,15-2.6,31.7,4.1,45.4c-5.7-5.3-10.4-11.4-14.1-18
		c0.2-0.4,0.3-0.8,0.2-1.3c-1.7-7.6-2.8-14.1-1.6-21.9c0.8-5.6,2.2-11.1,1.8-16.7c0-0.4-0.5-0.5-0.7-0.1c-2.8,7.4-5.8,16.6-6.1,25.4
		c-6.9-20.6-6.1-44.1,0.9-64.7c6.7-19.6,19.5-35.4,36.5-47c17.4-11.9,37.2-16.9,58-18c0.5,0,0.6-0.8,0.1-0.8
		c-27.7-4.8-58,11.3-76.9,30.5c-19.3,19.5-28.1,48.4-27,75.4c1.1,26.9,13.6,52.6,35.6,68.4c22.3,16.1,51.4,21.1,78.2,17.1
		c48.6-7.2,95.6-42.9,101.7-94C405.3,127.2,396.2,103.7,379.6,84.3z"/>
</g>
<path d="M267.8,157.8c-25-7.1-39.6-28.5-59.1-43.9c-0.6-0.5-1.4,0.3-0.8,0.8c9.9,8.4,18.7,18,28.5,26.6c8.8,7.8,19.3,15.7,31.2,17.5
	C268.2,158.9,268.5,158,267.8,157.8z"/>
<path d="M304.1,122.6c-10.4-11-20.3-23.4-32.9-31.9c-0.3-0.2-0.6,0.3-0.4,0.5c11.9,9.7,20.9,22.3,32.5,32.2
	C303.8,123.9,304.6,123.1,304.1,122.6z"/>
<path d="M233.8,71c0.1-0.1-0.2-0.2-0.2-0.1c-4.8,10.3-10.1,20.8-5.5,32.1c0.1,0.3,0.7,0.2,0.6-0.2C224.8,91.5,229.4,81.5,233.8,71z"
	/>
<path d="M246.1,63.4c-6.2,6.4-9,14.9-10.1,23.6c0,0.4,0.6,0.5,0.7,0.1c1.8-8.6,4.6-16.2,9.9-23.3C246.8,63.5,246.4,63.2,246.1,63.4z
	"/>
<path d="M269.6,56.8c-7.2,2.8-11.5,10.9-12.9,18.1c-0.1,0.4,0.5,0.6,0.6,0.2c1.7-7.2,5.6-14.5,12.5-17.9
	C270,57.1,269.8,56.7,269.6,56.8z"/>
<path d="M285.4,56.1c-5.2,4.1-8.1,10.4-8.8,16.9c0,0.4,0.7,0.5,0.7,0.1c0.9-6.5,3.9-11.9,8.5-16.5C286.2,56.3,285.8,55.9,285.4,56.1
	z"/>
<path d="M257.3,60.7c-4.3,4.2-8.1,8.9-9.4,14.9c-0.1,0.5,0.6,0.6,0.7,0.2c1.7-5.7,5.3-10.2,9.3-14.4
	C258.4,60.9,257.8,60.3,257.3,60.7z"/>
<path d="M224.6,110.2c-2.2-5.5-3.5-10.8-3.1-16.7c0.3-4.7,2-9.2,2.2-13.9c0-0.1-0.1-0.1-0.2,0c-3.7,10-4.6,21.3,0.5,30.9
	C224.2,110.8,224.8,110.6,224.6,110.2z"/>
<path d="M376.6,157.5c-0.2-0.3-0.7-0.1-0.6,0.2c3.5,9.1,1.9,19.6-0.4,28.8c-1.3,5.2-3.2,10.3-5.4,15.2c-1.8,3.9-4.5,7.2-6.5,10.9
	c-0.4,0.7,0.5,1.3,1.1,0.8c3.5-2.9,5.6-8.1,7.4-12.1c2.3-5.1,4-10.4,5.3-15.8C379.7,176.7,380.9,166,376.6,157.5z"/>
<path d="M194.4,148.8c-2.8,7.4-6,15.5-6,23.5c0,0.6,0.9,0.8,1.1,0.1c1.6-8,3.7-15.5,6.1-23.3C195.8,148.4,194.7,148.1,194.4,148.8z"
	/>
<path d="M251.6,241.5c-2.2-5.4-4.7-10.6-6.4-16.2c-2-6.6-2.7-13.4-3.1-20.3c0-0.4-0.7-0.4-0.7,0c-0.5,12.5,2.9,26.1,9.2,37
	C250.8,242.6,251.9,242.2,251.6,241.5z"/>
<path d="M236.6,236.8c-12.3-12.5-18.8-30.2-16-47.7c0-0.2-0.3-0.4-0.4-0.1c-3.7,16.7,2.7,37.1,16,48.3
	C236.4,237.5,236.8,237.1,236.6,236.8z"/>
<path d="M275.9,246.1c-7.9-6.5-11.6-15.2-13.4-25.1c0-0.2-0.4-0.1-0.3,0c1.2,10,5.1,19.5,13.3,25.6
	C275.8,246.9,276.2,246.3,275.9,246.1z"/>
<path d="M288.5,245.4c-10.1-4.7-14.7-13.7-19.3-23.2c-0.1-0.2-0.4-0.1-0.3,0.1c3.5,9.3,9,20.6,19.4,23.5
	C288.5,246,288.7,245.6,288.5,245.4z"/>
</svg>
