<?xml version="1.0" encoding="utf-8"?>
<!-- Generator: Adobe Illustrator 19.0.0, SVG Export Plug-In . SVG Version: 6.00 Build 0)  -->
<svg version="1.1" id="objects" xmlns="http://www.w3.org/2000/svg" xmlns:xlink="http://www.w3.org/1999/xlink" x="0px" y="0px"
	 viewBox="186.2 319.5 217.8 179.7" style="enable-background:new 186.2 319.5 217.8 179.7;" xml:space="preserve">
<g>
	<g>
		<path d="M403.7,417.6c1.3-10-0.8-18.7-6.7-26.8c-6.5-8.8-15.1-16.3-24.1-22.6c-13.5-9.5-33.2-18.6-49.1-9.5
			c-3.2,1.8-0.8,6.9,2.5,5.1c20.8-11.3,47.3,10.1,60.7,24.4c7.7,8.2,11.8,16,11,27.5c-1,13.1-6.7,25.9-12.9,37.3
			c-5.5,10.2-12.2,20.1-21.2,27.5c-13.3,10.8-31.2,15.2-48.1,16.2c-34.6,2.2-68.5-11.7-95.3-32.9c-12.7-10.1-22.1-23.1-26.9-38.7
			c-3.8-12.4-3.6-25.8-2.1-38.6c1.8-15.7,6.5-30.3,17.3-42.1c9.9-10.8,23.2-19,38.1-19.1c12.5-0.1,24.8,4.4,36,9.5
			c11.3,5.1,21.4,11.6,29.2,21.3c6.8,8.5,11.1,19.3,11.2,30.3c0.1,11.6-5.8,21.2-13.5,29.4c-7.2-7.3-12-19.8-12.1-29.2
			c0-0.4-0.4-0.6-0.7-0.5c-1.7-10.6-5.7-21.1-16.2-25.9c-9.7-4.4-20.6-4.6-29.6,1.8c-14.5,10.4-20.4,35.3-4.6,47.4
			c1.4,1,2.6-0.9,1.8-2.1c-8.8-12.9-7.4-28.8,4.7-39.3c7-6.1,15.7-5.9,24.1-3.4c5.6,1.6,9.2,4.9,11.9,9c-8,0.5-12.4,10.4-14.4,17
			c-1.5,5-2.1,10.6-1.6,16c-6.1,7.6-17.5,3.5-25.8,4c-8.1,0.5-14.4,5.8-14.8,14.3c-0.4,9.1,10.8,15.5,18.4,16.9
			c12.1,2.2,24.4-2.3,33.3-10.6c0.1-0.1,0.1-0.1,0.1-0.2c5,5.5,11.3,10.1,17.9,13.7c-3.9,0.5-7.7,1.4-11.8,1.2
			c-6.8-0.3-13.5-2.5-19.3-5.9c-1.1-0.7-2.1,0.9-1.1,1.7c5.4,4.4,11.6,6.5,18.5,7.4c5.5,0.7,13.3,0.8,18.4-2.1
			c3.9,1.8,7.8,3.2,11.5,4.2c5.9,1.5,12.7,1.3,17.7-2.5c4.9-3.7,6.3-10.2,2.1-15.2c-0.6-0.7-1.2-1.3-1.9-1.9
			c4.8-1.3,9.3-7,11.9-10.3c4.2-5.3,6.6-11.8,5.8-18.6c-1.5-11.7-16-20.8-26.6-15.1c0.3-9.6-2.2-19.5-7-28.1
			c-12.5-22.7-40.3-35.5-64.9-39.4c-31.8-5-56.4,20-64.9,48.6c-8.3,27.6-5.2,60.8,13.2,83.6c11.3,14,26.7,23.3,42.7,31.1
			c13.4,6.6,27,11.5,41.8,14c27.9,4.7,60.8,0.5,83.1-18.3C388.9,464.8,400.8,439.5,403.7,417.6z M283.4,430
			c-9.1,6.9-20.1,10.6-31.4,8c-9.5-2.1-21.6-12.9-10.8-21.7c8.8-7.3,25.3,3.3,32.7-6.7c0.5,2.9,1.3,5.8,2.4,8.5
			c1.7,4.2,4.3,8.2,7.4,11.8C283.5,429.9,283.4,429.9,283.4,430z M335.1,434.5c8.7,8.6-4.3,14.7-11.7,13.9
			c-15.1-1.7-30.3-13.1-39.3-24.7c-5.6-7.3-7.1-15.7-6.4-24.8c0.4-5.3,2.1-10.5,4.8-15.1c2-3.5,5.5-5.5,7.9-8.6
			c2.3,4.1,3.8,8.9,5.5,13.6c0.1,0.4,0.5,0.5,0.8,0.5c0.1,10.2,4.6,21.2,11.7,28.8c-0.1,0.7,0.5,1.5,1.3,1.3c1,1,2.1,1.9,3.2,2.8
			C319.8,427.1,328.9,428.4,335.1,434.5z M328.1,389.5c10.3-3.3,22.6,4.9,22.9,16c0.1,5.8-3,10.9-6.5,15.2
			c-2.9,3.7-7.4,5.6-10.5,8.8c-6.3-4.5-14.5-6.3-20.8-10.9c-0.4-0.3-0.7-0.6-1.1-0.9c10-6.9,14.8-17.2,15.6-28.3
			C327.8,389.5,327.9,389.5,328.1,389.5z"/>
		<path d="M224.8,381.1c-2.6-3-6.2,0.1-3.6,3.1C222.6,385.8,226.2,382.6,224.8,381.1z"/>
		<path d="M215.5,389.3c-2-2.3-5.7,1-3.7,3.3C214.4,395.6,218.2,392.3,215.5,389.3z"/>
		<path d="M222.3,412.6c-1.3-1.5-4.6,1.4-3.3,2.9C221.7,418.5,224.9,415.6,222.3,412.6z"/>
		<path d="M235,437.9c-0.1-0.5-0.3-1-0.7-1.4c-0.8-0.7-1.9-1-2.8-0.4c-0.4,0.2-0.8,0.5-1.1,0.9c-0.4,0.6-0.1,1.4,0.4,1.8
			c0.1,0.2,0.2,0.3,0.3,0.4c0.4,0.4,0.8,0.7,1.3,0.8C233.8,440.5,235.3,439.4,235,437.9z"/>
		<path d="M234.9,449.4c-0.2-0.9-0.8-1.6-1.3-2.3c-0.6-0.9-2.2-0.9-2.9-0.2c-0.8,0.7-1,2.2-0.2,2.9c0.7,0.6,1.3,1.2,2.1,1.6
			C233.8,451.9,235.2,450.6,234.9,449.4z"/>
		<path d="M273,458.7c-2.6-3-6.2,0.1-3.6,3.1C270.7,463.3,274.3,460.2,273,458.7z"/>
		<path d="M257.5,464.2c-2.6-3-7,0.9-4.4,3.9C255.1,470.3,259.5,466.5,257.5,464.2z"/>
		<path d="M282,470.7c-2.6-3-6.9,0.8-4.3,3.8S284.6,473.7,282,470.7z"/>
		<path d="M309.9,475.5c-2-2.3-5.5,0.9-3.5,3.1C308.3,480.9,311.8,477.8,309.9,475.5z"/>
		<path d="M320.2,466.1c0.1-0.4,0.3-1.2,0-1.7c-0.6-1.2-1.7-2.1-3.1-1.8c-1.7,0.3-2.7,2.3-1.9,3.8c0.6,1.3,2.3,1.9,3.6,1.2
			C319.5,467.3,320,466.8,320.2,466.1z"/>
		<path d="M344.3,467.9c-2.6-3-6.4,0.3-3.8,3.3C342.5,473.4,346.3,470.1,344.3,467.9z"/>
		<path d="M357.7,457.5c-2.6-3-6.8,0.6-4.1,3.6C356.2,464.1,360.3,460.5,357.7,457.5z"/>
		<path d="M360.2,435.3c-2.6-3-6.7,0.5-4,3.5C357.5,440.3,361.6,436.8,360.2,435.3z"/>
		<path d="M329.9,480.5c-2.6-3-6.4,0.3-3.8,3.3C328.1,486.1,331.9,482.7,329.9,480.5z"/>
		<path d="M300.2,460c-2-2.3-5,0.4-3,2.7C298.5,464.2,301.5,461.5,300.2,460z"/>
		<path d="M215,432.3c-1.3-1.5-4.3,1.1-3,2.6C214,437.2,217,434.6,215,432.3z"/>
	</g>
	<path d="M202.8,384.1c-8.3,8.4-14,19-14.9,30.9c-0.1,1.3,2,1.6,2.3,0.3c2.1-11.3,5.8-21.7,13.1-30.8
		C203.4,384.3,203.1,383.8,202.8,384.1z"/>
	<path d="M204.5,401.8c-7.1,8.5-11,18.7-10.5,29.9c0.1,1.4,2,1.4,2.1,0c0.7-11,3.3-19.8,9.6-29C206.1,402,205,401.2,204.5,401.8z"/>
	<path d="M207.9,421.4c-4.6,7.5-8.5,20.4-2.1,28.1c0.4,0.5,1.4,0,1.2-0.7c-3.8-9.4-2.3-17.8,1.7-26.9
		C209,421.4,208.3,420.9,207.9,421.4z"/>
	<path d="M225,468.6c-6.1-8.1-5.8-17.3-6.1-27c0-0.6-1-0.6-1,0c-0.3,9.8-0.4,19.8,6,27.8C224.3,470.1,225.4,469.3,225,468.6z"/>
	<path d="M206.9,369.5c-8,2.9-15.1,9.3-18.2,17.3c-0.4,1,1.3,1.8,1.8,0.8c1.7-3.6,3.6-6.8,6.3-9.7c3-3.2,6.7-5.5,10.2-8
		C207.3,369.7,207.2,369.4,206.9,369.5z"/>
	<path d="M214.9,352.1c-7.9,1.8-19.2,6.7-21.6,15.3c-0.3,1.1,1.4,1.9,1.9,0.8c4.1-8.4,12.1-11.5,19.9-15.6
		C215.4,352.4,215.2,352,214.9,352.1z"/>
	<path d="M291.4,400.7c-2.3-3.1-3.7-6.3-4.8-10c-1.1-3.8,0.1-7.6-0.8-11.3c-0.2-0.7-1.1-0.9-1.5-0.4c-2.5,2.8-1.5,7.9-0.8,11.3
		c0.9,4.3,3.5,8.7,7.2,11.1C291.2,401.7,291.7,401.2,291.4,400.7z"/>
	<path d="M290.7,417.7c-2.6-1.5-5.1-2.8-7.4-4.7c-2.3-1.9-4-4.3-5.8-6.7c-1-1.3-2.9-0.2-2.2,1.3c2.4,5.1,9.3,11.2,15.1,11.4
		C291,419,291.3,418.1,290.7,417.7z"/>
	<path d="M304.3,430c-5.2,0.6-10,0-14.9-1.7c-1.6-0.6-2.7,2-1.1,2.7c5,2.3,11.6,3,16.3-0.3C304.8,430.5,304.7,429.9,304.3,430z"/>
	<path d="M320.2,438.4c-6.8,0.9-13.2,2.3-20.1,0.4c-2.1-0.6-3,2.7-0.9,3.2c7.2,1.7,14.7,0.7,21.4-2.4
		C321.4,439.2,320.8,438.3,320.2,438.4z"/>
	<path d="M376.2,422.5c-0.5-0.5-1.5,0.2-1.1,0.8c8.5,12.6,6.9,25.4,5.3,39.7c-0.2,1.5,2.1,1.7,2.5,0.3
		C386.7,450.6,386.1,432.4,376.2,422.5z"/>
	<path d="M392.2,426.1c-1.8-6.2-5.3-11.9-10.1-16.3c-0.7-0.6-1.6,0.3-1,1c3.6,4.3,6.1,9.3,7.9,14.6c0.9,2.7,1.4,5.6,1.7,8.4
		c0.3,2.9-0.5,5.7-0.2,8.5c0.1,1.1,1.5,1.6,2.1,0.6C395.4,438.2,393.7,431,392.2,426.1z"/>
	<path d="M376.5,391.9c-0.5-0.1-0.9,0.6-0.4,0.9c12.7,5.8,21.2,15.8,21.2,30.2c0,1.5,2,1.4,2.2,0
		C401.3,408.4,390.8,394.7,376.5,391.9z"/>
	<path d="M251.1,413.5c0.3-0.8-0.2-1.5-1-1.4c-3.1,0.5-4.7,4.1-5.1,6.9c-0.4,3,0.5,5.9,2.4,8.2c0.3,0.4,0.8-0.1,0.6-0.5
		c-1.1-2.4-0.9-4.9-0.2-7.4C248.4,417.1,250.2,415.6,251.1,413.5z"/>
	<path d="M260.2,412.3c-3.2,1.7-4.2,6.3-3.6,9.5c0.3,1.5,0.7,3.4,1.8,4.6c1.1,1.3,1.8,1.3,3.3,1.4c0.2,0,0.3-0.3,0.1-0.4
		c-1.6-0.8-2.1-4.6-2.1-6.1c-0.1-2.7,0.3-4.9,2.5-6.6C263.6,413.6,261.7,411.5,260.2,412.3z"/>
</g>
<path d="M215.7,460.6c-3-6.1-2.4-12.4-2.9-19c0-0.6-0.8-0.6-0.9,0c-0.6,6.7-0.8,13.7,2.4,19.7C214.8,462.3,216.1,461.5,215.7,460.6z
	"/>
<path d="M202.8,416.2c-3.3,7.7-5,16.4-4.3,24.8c0.1,0.7,1,0.7,1,0c0.8-8.5,1.1-16.4,3.7-24.6C203.3,416.2,202.9,416,202.8,416.2z"/>
<path d="M226,455.6L226,455.6L226,455.6z"/>
<path d="M236,476.7c-5.2-6.3-8.2-13.8-9.8-21.8c-0.1-0.6-1.1-0.4-0.9,0.3c1.4,7.8,4.2,16.7,10.2,22.2
	C235.8,477.7,236.4,477.1,236,476.7z"/>
<path d="M247.3,480.7c-5-5.5-6.9-11.9-8.1-19.1c0-0.3-0.5-0.2-0.5,0.1c0.3,7.1,2.1,15,8,19.6C247.1,481.6,247.7,481.1,247.3,480.7z"
	/>
<path d="M256,486c-3.1-3.8-3.7-8.2-4-13c0-0.5-0.7-0.5-0.8,0c-0.2,4.7,0.4,10.3,4,13.7C255.8,487.2,256.4,486.5,256,486z"/>
<path d="M273.3,492.7c-3.2-3.9-6.2-8.1-7.2-13.2c-0.1-0.6-1-0.3-0.9,0.3c0.7,5.1,3.6,10.2,7.5,13.5
	C273.1,493.7,273.7,493.1,273.3,492.7z"/>
<path d="M264.1,486.8c-2.3-3.2-3.7-6.5-4-10.4c0-0.5-0.8-0.5-0.8,0c-0.1,4.2,1.5,7.8,4.1,11C263.7,487.7,264.3,487.2,264.1,486.8z"
	/>
<path d="M371.2,437.5c-0.2-0.3-0.6,0-0.4,0.3c3,5.4,2.6,12.7,2.2,18.6c-0.4,6.8-1.6,14-4.8,20.1c-0.5,1,1,1.9,1.5,0.9
	c3.4-5.8,4.2-13.2,4.8-19.7C375.1,451.3,375.3,443,371.2,437.5z"/>
<path d="M366.4,456.2c-0.2-0.1-0.4,0.1-0.3,0.3c2.4,3.8,0.1,10.6-0.9,14.4c-1.3,5-4,9.2-5.6,14c-0.3,0.8,0.7,1.1,1.2,0.7
	c4-3.3,5.5-11.9,6.5-16.5C368.2,465.5,370,458.6,366.4,456.2z"/>
<path d="M383.3,401.2c-0.6-0.3-1.2,0.6-0.6,1c10.7,6.6,11.6,17.6,12.8,28.9c0.1,1,1.5,1.1,1.6,0C398.1,420,393.8,406.2,383.3,401.2z
	"/>
<path d="M240.5,420.6c-0.3-2.1,0-4.1,0.3-6.3c0.1-0.4-0.6-0.6-0.8-0.2c-1.7,3.8-0.4,8.6,0.7,12.3c0.1,0.3,0.7,0.3,0.6-0.1
	C241.1,424.4,240.7,422.5,240.5,420.6z"/>
<path d="M254,412.1c-2.1,3.1-2,8.3-0.5,11.7c0.1,0.2,0.4,0.1,0.4-0.2c-0.6-3.7-0.7-7.6,0.8-11.1C254.9,412.1,254.3,411.7,254,412.1z
	"/>
<path d="M270,422.8c-2.4-3.4-2.6-7.2-1.1-11c0.3-0.7-0.7-0.9-1.1-0.4c-2.4,3.4-1.6,9.2,1.5,11.9C269.7,423.6,270.3,423.2,270,422.8z
	"/>
<path d="M287.4,404.2c-4.2-3.1-7.9-6.1-9.2-11.4c-0.2-0.7-1.3-0.6-1.3,0.2c0.4,5.7,4.5,10.4,9.5,12.8
	C287.6,406.2,288.4,404.9,287.4,404.2z"/>
<path d="M293.7,426.4c-3.3-0.2-6.9,0.5-9.7-1.7c-0.4-0.3-0.9,0.2-0.6,0.6c2.7,2.9,6.6,2.6,10.3,2.3
	C294.4,427.6,294.5,426.4,293.7,426.4z"/>
<path d="M308.7,433.8c-3.5,1.5-6.4,3-10.4,2.8c-0.4,0-0.5,0.6-0.1,0.7c3.9,0.9,7.9-0.1,11.1-2.5
	C309.9,434.4,309.4,433.5,308.7,433.8z"/>
<path d="M325.3,443.3c-2.5,2.4-5.5,3.9-8.9,4.1c-0.4,0-0.4,0.7,0,0.7c3.8,0,7-1.4,9.7-3.9C326.6,443.6,325.8,442.8,325.3,443.3z"/>
</svg>
