<?xml version="1.0" encoding="utf-8"?>
<!-- Generator: Adobe Illustrator 19.0.0, SVG Export Plug-In . SVG Version: 6.00 Build 0)  -->
<svg version="1.1" id="objects" xmlns="http://www.w3.org/2000/svg" xmlns:xlink="http://www.w3.org/1999/xlink" x="0px" y="0px"
	 viewBox="-1.8 650.6 217.8 179.7" style="enable-background:new -1.8 650.6 217.8 179.7;" xml:space="preserve">
<g>
	<g>
		<path d="M215.7,748.8c1.3-10-0.8-18.7-6.7-26.8c-6.5-8.8-15.1-16.3-24.1-22.6c-13.5-9.5-33.2-18.6-49.1-9.5
			c-3.2,1.8-0.8,6.9,2.5,5.1c20.8-11.3,47.3,10.1,60.7,24.4c7.7,8.2,11.8,16,11,27.5c-1,13.1-6.7,25.9-12.9,37.3
			c-5.5,10.2-12.2,20.1-21.2,27.5c-13.3,10.8-31.2,15.2-48.1,16.2c-34.6,2.2-68.5-11.7-95.3-32.9c-12.7-10.1-22.1-23.1-26.9-38.7
			c-3.8-12.4-3.6-25.8-2.1-38.6c1.8-15.7,6.5-30.3,17.3-42.1c9.9-10.8,23.2-19,38.1-19.1c12.5-0.1,24.8,4.4,36,9.5
			c11.3,5.1,21.4,11.6,29.2,21.3c6.8,8.5,11.1,19.3,11.2,30.3c0.1,11.6-5.8,21.2-13.5,29.4c-7.2-7.3-12-19.8-12.1-29.2
			c0-0.4-0.4-0.6-0.7-0.5c-1.7-10.6-5.7-21.1-16.2-25.9c-9.7-4.4-20.6-4.6-29.6,1.8c-14.5,10.4-20.4,35.3-4.6,47.4
			c1.4,1,2.6-0.9,1.8-2.1c-8.8-12.9-7.4-28.8,4.7-39.3c7-6.1,15.7-5.9,24.1-3.4c5.6,1.6,9.2,4.9,11.9,9c-8,0.5-12.4,10.4-14.4,17
			c-1.5,5-2.1,10.6-1.6,16c-6.1,7.6-17.5,3.5-25.8,4c-8.1,0.5-14.4,5.8-14.8,14.3c-0.4,9.1,10.8,15.5,18.4,16.9
			c12.1,2.2,24.4-2.3,33.3-10.6c0.1-0.1,0.1-0.1,0.1-0.2c5,5.5,11.3,10.1,17.9,13.7c-3.9,0.5-7.7,1.4-11.8,1.2
			c-6.8-0.3-13.5-2.5-19.3-5.9c-1.1-0.7-2.1,0.9-1.1,1.7c5.4,4.4,11.6,6.5,18.5,7.4c5.5,0.7,13.3,0.8,18.4-2.1
			c3.9,1.8,7.8,3.2,11.5,4.2c5.9,1.5,12.7,1.3,17.7-2.5c4.9-3.7,6.3-10.2,2.1-15.2c-0.6-0.7-1.2-1.3-1.9-1.9
			c4.8-1.3,9.3-7,11.9-10.3c4.2-5.3,6.6-11.8,5.8-18.6c-1.5-11.7-16-20.8-26.6-15.1c0.3-9.6-2.2-19.5-7-28.1
			c-12.5-22.7-40.3-35.5-64.9-39.4c-31.8-5-56.4,20-64.9,48.6c-8.3,27.6-5.2,60.8,13.2,83.6c11.3,14,26.7,23.3,42.7,31.1
			c13.4,6.6,27,11.5,41.8,14c27.9,4.7,60.8,0.5,83.1-18.3C200.9,796,212.8,770.7,215.7,748.8z M95.4,761.2
			c-9.1,6.9-20.1,10.6-31.4,8c-9.5-2.1-21.6-12.9-10.8-21.7c8.8-7.3,25.3,3.3,32.7-6.7c0.5,2.9,1.3,5.8,2.4,8.5
			c1.7,4.2,4.3,8.2,7.4,11.8C95.5,761.1,95.4,761.1,95.4,761.2z M147.1,765.7c8.7,8.6-4.3,14.7-11.7,13.9
			c-15.1-1.7-30.3-13.1-39.3-24.7c-5.6-7.3-7.1-15.7-6.4-24.8c0.4-5.3,2.1-10.5,4.8-15.1c2-3.5,5.5-5.5,7.9-8.6
			c2.3,4.1,3.8,8.9,5.5,13.6c0.1,0.4,0.5,0.5,0.8,0.5c0.1,10.2,4.6,21.2,11.7,28.8c-0.1,0.7,0.5,1.5,1.3,1.3c1,1,2.1,1.9,3.2,2.8
			C131.8,758.3,140.9,759.6,147.1,765.7z M140.1,720.7c10.3-3.3,22.6,4.9,22.9,16c0.1,5.8-3,10.9-6.5,15.2
			c-2.9,3.7-7.4,5.6-10.5,8.8c-6.3-4.5-14.5-6.3-20.8-10.9c-0.4-0.3-0.7-0.6-1.1-0.9c10-6.9,14.8-17.2,15.6-28.3
			C139.8,720.7,139.9,720.7,140.1,720.7z"/>
		<path d="M36.8,712.3c-2.6-3-6.2,0.1-3.6,3.1C34.6,717,38.2,713.8,36.8,712.3z"/>
		<path d="M27.5,720.5c-2-2.3-5.7,1-3.7,3.3C26.4,726.8,30.2,723.5,27.5,720.5z"/>
		<path d="M34.3,743.8c-1.3-1.5-4.6,1.4-3.3,2.9C33.7,749.7,36.9,746.8,34.3,743.8z"/>
		<path d="M47,769.1c-0.1-0.5-0.3-1-0.7-1.4c-0.8-0.7-1.9-1-2.8-0.4c-0.4,0.2-0.8,0.5-1.1,0.9c-0.4,0.6-0.1,1.4,0.4,1.8
			c0.1,0.2,0.2,0.3,0.3,0.4c0.4,0.4,0.8,0.7,1.3,0.8C45.8,771.7,47.3,770.6,47,769.1z"/>
		<path d="M46.9,780.6c-0.2-0.9-0.8-1.6-1.3-2.3c-0.6-0.9-2.2-0.9-2.9-0.2c-0.8,0.7-1,2.2-0.2,2.9c0.7,0.6,1.3,1.2,2.1,1.6
			C45.8,783.1,47.2,781.8,46.9,780.6z"/>
		<path d="M85,789.9c-2.6-3-6.2,0.1-3.6,3.1C82.7,794.5,86.3,791.4,85,789.9z"/>
		<path d="M69.5,795.4c-2.6-3-7,0.9-4.4,3.9C67.1,801.5,71.5,797.7,69.5,795.4z"/>
		<path d="M94,801.9c-2.6-3-6.9,0.8-4.3,3.8S96.6,804.9,94,801.9z"/>
		<path d="M121.9,806.7c-2-2.3-5.5,0.9-3.5,3.1C120.3,812.1,123.8,809,121.9,806.7z"/>
		<path d="M132.2,797.3c0.1-0.4,0.3-1.2,0-1.7c-0.6-1.2-1.7-2.1-3.1-1.8c-1.7,0.3-2.7,2.3-1.9,3.8c0.6,1.3,2.3,1.9,3.6,1.2
			C131.5,798.5,132,798,132.2,797.3z"/>
		<path d="M156.3,799.1c-2.6-3-6.4,0.3-3.8,3.3C154.5,804.6,158.3,801.3,156.3,799.1z"/>
		<path d="M169.7,788.7c-2.6-3-6.8,0.6-4.1,3.6C168.2,795.3,172.3,791.7,169.7,788.7z"/>
		<path d="M172.2,766.5c-2.6-3-6.7,0.5-4,3.5C169.5,771.5,173.6,768,172.2,766.5z"/>
		<path d="M141.9,811.7c-2.6-3-6.4,0.3-3.8,3.3C140.1,817.3,143.9,813.9,141.9,811.7z"/>
		<path d="M112.2,791.2c-2-2.3-5,0.4-3,2.7C110.5,795.4,113.5,792.7,112.2,791.2z"/>
		<path d="M27,763.5c-1.3-1.5-4.3,1.1-3,2.6C26,768.4,29,765.8,27,763.5z"/>
	</g>
	<path d="M14.8,715.3c-8.3,8.4-14,19-14.9,30.9c-0.1,1.3,2,1.6,2.3,0.3c2.1-11.3,5.8-21.7,13.1-30.8C15.4,715.5,15.1,715,14.8,715.3
		z"/>
	<path d="M16.5,733c-7.1,8.5-11,18.7-10.5,29.9c0.1,1.4,2,1.4,2.1,0c0.7-11,3.3-19.8,9.6-29C18.1,733.2,17,732.4,16.5,733z"/>
	<path d="M19.9,752.6c-4.6,7.5-8.5,20.4-2.1,28.1c0.4,0.5,1.4,0,1.2-0.7c-3.8-9.4-2.3-17.8,1.7-26.9C21,752.6,20.3,752.1,19.9,752.6
		z"/>
	<path d="M37,799.8c-6.1-8.1-5.8-17.3-6.1-27c0-0.6-1-0.6-1,0c-0.3,9.8-0.4,19.8,6,27.8C36.3,801.3,37.4,800.5,37,799.8z"/>
	<path d="M18.9,700.7c-8,2.9-15.1,9.3-18.2,17.3c-0.4,1,1.3,1.8,1.8,0.8c1.7-3.6,3.6-6.8,6.3-9.7c3-3.2,6.7-5.5,10.2-8
		C19.3,700.9,19.2,700.6,18.9,700.7z"/>
	<path d="M26.9,683.3C19,685.1,7.7,690,5.3,698.6c-0.3,1.1,1.4,1.9,1.9,0.8c4.1-8.4,12.1-11.5,19.9-15.6
		C27.4,683.6,27.2,683.2,26.9,683.3z"/>
	<path d="M103.4,731.9c-2.3-3.1-3.7-6.3-4.8-10c-1.1-3.8,0.1-7.6-0.8-11.3c-0.2-0.7-1.1-0.9-1.5-0.4c-2.5,2.8-1.5,7.9-0.8,11.3
		c0.9,4.3,3.5,8.7,7.2,11.1C103.2,732.9,103.7,732.4,103.4,731.9z"/>
	<path d="M102.7,748.9c-2.6-1.5-5.1-2.8-7.4-4.7s-4-4.3-5.8-6.7c-1-1.3-2.9-0.2-2.2,1.3c2.4,5.1,9.3,11.2,15.1,11.4
		C103,750.2,103.3,749.3,102.7,748.9z"/>
	<path d="M116.3,761.2c-5.2,0.6-10,0-14.9-1.7c-1.6-0.6-2.7,2-1.1,2.7c5,2.3,11.6,3,16.3-0.3C116.8,761.7,116.7,761.1,116.3,761.2z"
		/>
	<path d="M132.2,769.6c-6.8,0.9-13.2,2.3-20.1,0.4c-2.1-0.6-3,2.7-0.9,3.2c7.2,1.7,14.7,0.7,21.4-2.4
		C133.4,770.4,132.8,769.5,132.2,769.6z"/>
	<path d="M188.2,753.7c-0.5-0.5-1.5,0.2-1.1,0.8c8.5,12.6,6.9,25.4,5.3,39.7c-0.2,1.5,2.1,1.7,2.5,0.3
		C198.7,781.8,198.1,763.6,188.2,753.7z"/>
	<path d="M204.2,757.3c-1.8-6.2-5.3-11.9-10.1-16.3c-0.7-0.6-1.6,0.3-1,1c3.6,4.3,6.1,9.3,7.9,14.6c0.9,2.7,1.4,5.6,1.7,8.4
		c0.3,2.9-0.5,5.7-0.2,8.5c0.1,1.1,1.5,1.6,2.1,0.6C207.4,769.4,205.7,762.2,204.2,757.3z"/>
	<path d="M188.5,723.1c-0.5-0.1-0.9,0.6-0.4,0.9c12.7,5.8,21.2,15.8,21.2,30.2c0,1.5,2,1.4,2.2,0
		C213.3,739.6,202.8,725.9,188.5,723.1z"/>
	<path d="M63.1,744.7c0.3-0.8-0.2-1.5-1-1.4c-3.1,0.5-4.7,4.1-5.1,6.9c-0.4,3,0.5,5.9,2.4,8.2c0.3,0.4,0.8-0.1,0.6-0.5
		c-1.1-2.4-0.9-4.9-0.2-7.4C60.4,748.3,62.2,746.8,63.1,744.7z"/>
	<path d="M72.2,743.5c-3.2,1.7-4.2,6.3-3.6,9.5c0.3,1.5,0.7,3.4,1.8,4.6c1.1,1.3,1.8,1.3,3.3,1.4c0.2,0,0.3-0.3,0.1-0.4
		c-1.6-0.8-2.1-4.6-2.1-6.1c-0.1-2.7,0.3-4.9,2.5-6.6C75.6,744.8,73.7,742.7,72.2,743.5z"/>
</g>
<path d="M27.7,791.8c-3-6.1-2.4-12.4-2.9-19c0-0.6-0.8-0.6-0.9,0c-0.6,6.7-0.8,13.7,2.4,19.7C26.8,793.5,28.1,792.7,27.7,791.8z"/>
<path d="M14.8,747.4c-3.3,7.7-5,16.4-4.3,24.8c0.1,0.7,1,0.7,1,0c0.8-8.5,1.1-16.4,3.7-24.6C15.3,747.4,14.9,747.2,14.8,747.4z"/>
<path d="M38,786.8L38,786.8L38,786.8z"/>
<path d="M48,807.9c-5.2-6.3-8.2-13.8-9.8-21.8c-0.1-0.6-1.1-0.4-0.9,0.3c1.4,7.8,4.2,16.7,10.2,22.2C47.8,808.9,48.4,808.3,48,807.9
	z"/>
<path d="M59.3,811.9c-5-5.5-6.9-11.9-8.1-19.1c0-0.3-0.5-0.2-0.5,0.1c0.3,7.1,2.1,15,8,19.6C59.1,812.8,59.7,812.3,59.3,811.9z"/>
<path d="M68,817.2c-3.1-3.8-3.7-8.2-4-13c0-0.5-0.7-0.5-0.8,0c-0.2,4.7,0.4,10.3,4,13.7C67.8,818.4,68.4,817.7,68,817.2z"/>
<path d="M85.3,823.9c-3.2-3.9-6.2-8.1-7.2-13.2c-0.1-0.6-1-0.3-0.9,0.3c0.7,5.1,3.6,10.2,7.5,13.5C85.1,824.9,85.7,824.3,85.3,823.9
	z"/>
<path d="M76.1,818c-2.3-3.2-3.7-6.5-4-10.4c0-0.5-0.8-0.5-0.8,0c-0.1,4.2,1.5,7.8,4.1,11C75.7,818.9,76.3,818.4,76.1,818z"/>
<path d="M183.2,768.7c-0.2-0.3-0.6,0-0.4,0.3c3,5.4,2.6,12.7,2.2,18.6c-0.4,6.8-1.6,14-4.8,20.1c-0.5,1,1,1.9,1.5,0.9
	c3.4-5.8,4.2-13.2,4.8-19.7C187.1,782.5,187.3,774.2,183.2,768.7z"/>
<path d="M178.4,787.4c-0.2-0.1-0.4,0.1-0.3,0.3c2.4,3.8,0.1,10.6-0.9,14.4c-1.3,5-4,9.2-5.6,14c-0.3,0.8,0.7,1.1,1.2,0.7
	c4-3.3,5.5-11.9,6.5-16.5C180.2,796.7,182,789.8,178.4,787.4z"/>
<path d="M195.3,732.4c-0.6-0.3-1.2,0.6-0.6,1c10.7,6.6,11.6,17.6,12.8,28.9c0.1,1,1.5,1.1,1.6,0
	C210.1,751.2,205.8,737.4,195.3,732.4z"/>
<path d="M52.5,751.8c-0.3-2.1,0-4.1,0.3-6.3c0.1-0.4-0.6-0.6-0.8-0.2c-1.7,3.8-0.4,8.6,0.7,12.3c0.1,0.3,0.7,0.3,0.6-0.1
	C53.1,755.6,52.7,753.7,52.5,751.8z"/>
<path d="M66,743.3c-2.1,3.1-2,8.3-0.5,11.7c0.1,0.2,0.4,0.1,0.4-0.2c-0.6-3.7-0.7-7.6,0.8-11.1C66.9,743.3,66.3,742.9,66,743.3z"/>
<path d="M82,754c-2.4-3.4-2.6-7.2-1.1-11c0.3-0.7-0.7-0.9-1.1-0.4c-2.4,3.4-1.6,9.2,1.5,11.9C81.7,754.8,82.3,754.4,82,754z"/>
<path d="M99.4,735.4c-4.2-3.1-7.9-6.1-9.2-11.4c-0.2-0.7-1.3-0.6-1.3,0.2c0.4,5.7,4.5,10.4,9.5,12.8
	C99.6,737.4,100.4,736.1,99.4,735.4z"/>
<path d="M105.7,757.6c-3.3-0.2-6.9,0.5-9.7-1.7c-0.4-0.3-0.9,0.2-0.6,0.6c2.7,2.9,6.6,2.6,10.3,2.3
	C106.4,758.8,106.5,757.6,105.7,757.6z"/>
<path d="M120.7,765c-3.5,1.5-6.4,3-10.4,2.8c-0.4,0-0.5,0.6-0.1,0.7c3.9,0.9,7.9-0.1,11.1-2.5C121.9,765.6,121.4,764.7,120.7,765z"
	/>
<path d="M137.3,774.5c-2.5,2.4-5.5,3.9-8.9,4.1c-0.4,0-0.4,0.7,0,0.7c3.8,0,7-1.4,9.7-3.9C138.6,774.8,137.8,774,137.3,774.5z"/>
</svg>
