<?xml version="1.0" encoding="utf-8"?>
<!-- Generator: Adobe Illustrator 19.0.0, SVG Export Plug-In . SVG Version: 6.00 Build 0)  -->
<svg version="1.1" id="Слой_1" xmlns="http://www.w3.org/2000/svg" xmlns:xlink="http://www.w3.org/1999/xlink" x="0px" y="0px"
	 viewBox="-114 390.9 367 60" style="enable-background:new -114 390.9 367 60;" xml:space="preserve">
<style type="text/css">
	.st0{fill:#C1BDB8;}
</style>
<path class="st0" d="M307.7,410.9c-2.9,0-5.2,2.2-5.5,5h0h-0.1H160.5h-0.3h0c-0.3-16.3-13.6-29.5-30-29.5c-16.5,0-29.9,13.3-30,29.8
	v-0.3h-142v0.3c-0.1-2.9-2.5-5.3-5.5-5.3c-3,0-5.5,2.5-5.5,5.5c0,3,2.5,5.5,5.5,5.5c3,0,5.4-2.3,5.5-5.3v0.3h142v-0.3
	c0.1,16.5,13.5,29.8,30,29.8c16.4,0,29.7-13.2,30-29.5h0v0h141.9h0.1h0c0.3,2.8,2.6,5,5.5,5c3,0,5.5-2.5,5.5-5.5
	C313.2,413.4,310.8,410.9,307.7,410.9z M-47.3,420.9c-2.5,0-4.5-2-4.5-4.5s2-4.5,4.5-4.5s4.5,2,4.5,4.5S-44.8,420.9-47.3,420.9z
	 M130.2,445.4c-16,0-29-13-29-29s13-29,29-29s29,13,29,29S146.2,445.4,130.2,445.4z M307.7,420.9c-2.5,0-4.5-2-4.5-4.5
	s2-4.5,4.5-4.5s4.5,2,4.5,4.5S310.2,420.9,307.7,420.9z"/>
</svg>
