<?xml version="1.0" encoding="utf-8"?>
<!-- Generator: Adobe Illustrator 19.0.0, SVG Export Plug-In . SVG Version: 6.00 Build 0)  -->
<svg version="1.1" id="objects" xmlns="http://www.w3.org/2000/svg" xmlns:xlink="http://www.w3.org/1999/xlink" x="0px" y="0px"
	 viewBox="-377.4 1313.1 217.7 179.7" style="enable-background:new -377.4 1313.1 217.7 179.7;" xml:space="preserve">
<g>
	<path d="M-339.2,1374.7c-2.6-3-6.2,0.1-3.6,3.1C-341.4,1379.4-337.8,1376.2-339.2,1374.7z"/>
	<path d="M-348.5,1382.9c-2-2.3-5.7,1-3.7,3.3C-349.6,1389.2-345.8,1385.9-348.5,1382.9z"/>
	<path d="M-345,1409.1c2.7,3,5.9,0.1,3.3-2.9C-343,1404.7-346.3,1407.6-345,1409.1z"/>
	<path d="M-329,1431.5c-0.1-0.5-0.3-1-0.7-1.4c-0.8-0.7-1.9-1-2.8-0.4c-0.4,0.2-0.8,0.5-1.1,0.9c-0.4,0.6-0.1,1.4,0.4,1.8
		c0.1,0.2,0.2,0.3,0.3,0.4c0.4,0.4,0.8,0.7,1.3,0.8C-330.2,1434.1-328.7,1433-329,1431.5z"/>
	<path d="M-333.3,1440.5c-0.8,0.7-1,2.2-0.2,2.9c0.7,0.6,1.3,1.2,2.1,1.6c1.2,0.5,2.6-0.8,2.3-2c-0.2-0.9-0.8-1.6-1.3-2.3
		C-331,1439.8-332.6,1439.8-333.3,1440.5z"/>
	<path d="M-294.6,1455.4c1.3,1.5,4.9-1.6,3.6-3.1C-293.6,1449.3-297.2,1452.4-294.6,1455.4z"/>
	<path d="M-310.9,1461.7c2,2.2,6.4-1.6,4.4-3.9C-309.1,1454.8-313.5,1458.7-310.9,1461.7z"/>
	<path d="M-286.3,1468.1c2.6,3,6.9-0.8,4.3-3.8C-284.6,1461.3-288.9,1465.1-286.3,1468.1z"/>
	<path d="M-257.6,1472.2c1.9,2.3,5.4-0.8,3.5-3.1C-256.1,1466.8-259.6,1470-257.6,1472.2z"/>
	<path d="M-246.9,1456.2c-1.7,0.3-2.7,2.3-1.9,3.8c0.6,1.3,2.3,1.9,3.6,1.2c0.7-0.3,1.2-0.8,1.4-1.5c0.1-0.4,0.3-1.2,0-1.7
		C-244.4,1456.8-245.5,1455.9-246.9,1456.2z"/>
	<path d="M-223.5,1464.8c2,2.2,5.8-1.1,3.8-3.3C-222.3,1458.5-226.1,1461.8-223.5,1464.8z"/>
	<path d="M-210.4,1454.7c2.6,3,6.7-0.6,4.1-3.6C-208.9,1448.1-213.1,1451.7-210.4,1454.7z"/>
	<path d="M-203.8,1428.9c-2.6-3-6.7,0.5-4,3.5C-206.5,1433.9-202.4,1430.4-203.8,1428.9z"/>
	<path d="M-237.9,1477.4c2,2.3,5.8-1.1,3.8-3.3C-236.7,1471.1-240.5,1474.4-237.9,1477.4z"/>
	<path d="M-266.8,1456.3c1.3,1.5,4.3-1.2,3-2.7C-265.8,1451.3-268.8,1454-266.8,1456.3z"/>
	<path d="M-352,1428.5c2,2.3,5-0.3,3-2.6C-350.3,1424.4-353.3,1427-352,1428.5z"/>
</g>
<path d="M-167,1384.4c-6.5-8.8-15.1-16.3-24.1-22.6c-13.5-9.5-33.2-18.6-49.1-9.5c-3.2,1.8-0.8,6.9,2.5,5.1
	c20.8-11.3,47.3,10.1,60.7,24.4c6.4,6.8,10.3,13.4,11,22.1c-3.4-9.2-11.5-16.4-21.5-18.4c-0.5-0.1-0.9,0.6-0.4,0.9
	c12.3,5.6,20.6,15.1,21.1,28.7c-0.1,0.5-0.2,1.1-0.3,1.6c-1.1-9-5.5-18.1-13.6-21.9c-0.6-0.3-1.2,0.6-0.6,1
	c10.2,6.3,11.5,16.5,12.6,27.3c-0.4,1.4-0.9,2.9-1.4,4.3c-0.3-2.7-1-5.5-1.7-7.7c-1.8-6.2-5.3-11.9-10.1-16.3c-0.7-0.6-1.6,0.3-1,1
	c3.6,4.3,6.1,9.3,7.9,14.6c0.9,2.7,1.4,5.6,1.7,8.4c0.3,2.9-0.5,5.7-0.2,8.4c-1.7,3.7-3.5,7.3-5.4,10.8c-0.1,0.2-0.2,0.4-0.3,0.6
	c1.1-11.1-1-23.5-8.6-31.1c-0.5-0.5-1.5,0.2-1.1,0.8c8,11.9,7,24,5.6,37.4c-2.6,4.2-5.6,8.3-8.8,12.1c1.7-4.8,2.2-10.2,2.7-15
	c0.6-6.4,0.8-14.7-3.3-20.2c-0.2-0.3-0.6,0-0.4,0.3c3,5.4,2.6,12.7,2.2,18.6c-0.4,6.8-1.6,14-4.8,20.1v0.1c-1.2,1.2-2.5,2.4-3.8,3.5
	c1.5-3.7,2.3-8.1,2.9-11c0.9-3.6,2.7-10.5-0.9-12.9c-0.2-0.1-0.4,0.1-0.3,0.3c2.4,3.8,0.1,10.6-0.9,14.4c-1.1,4.4-3.4,8.2-5,12.3
	c-12.8,8.8-29,12.6-44.4,13.5c-14.8,0.9-29.5-1.1-43.6-5.4c-2.8-3.5-5.2-7.3-6.1-11.8c-0.1-0.6-1-0.3-0.9,0.3
	c0.5,3.9,2.4,7.8,4.9,10.9c-2-0.6-4-1.3-5.9-2.1v-0.1c-2.3-3.2-3.7-6.5-4-10.4c0-0.5-0.8-0.5-0.8,0c-0.1,3.7,1.2,7,3.3,9.9
	c-2.5-1-5-2-7.4-3.1c-2.4-3.6-3-7.6-3.2-12c0-0.5-0.7-0.5-0.8,0c-0.2,3.6,0.2,7.8,2,11c-2-0.9-3.9-1.9-5.8-2.8
	c0.1-0.1,0.1-0.3-0.1-0.5c-5-5.5-6.9-11.9-8.1-19.1c0-0.3-0.5-0.2-0.5,0.1c0.3,6.5,1.8,13.7,6.7,18.4c-4.1-2.2-8.2-4.6-12.1-7.1
	c-3.6-5.5-5.8-11.6-7.1-18.1c-0.1-0.6-1.1-0.4-0.9,0.3c1,5.3,2.6,11.2,5.4,16.1c-2.5-1.7-5-3.5-7.4-5.3c-4.3-7.4-4.1-15.7-4.3-24.3
	c0-0.6-1-0.6-1,0c-0.2,7.6-0.3,15.4,2.7,22.3c0,0,0,0-0.1-0.1c-1.9-1.5-3.7-3.1-5.5-4.7c-2.2-5.6-1.8-11.4-2.2-17.5
	c0-0.6-0.8-0.6-0.9,0c-0.4,5-0.7,10.2,0.6,15c-2.1-2.2-4.2-4.5-6-6.9c0.4-0.1,0.7-0.4,0.6-0.9c-3.8-9.4-2.3-17.8,1.7-26.9
	c0.3-0.5-0.4-1-0.8-0.5c-3.9,6.4-7.3,16.8-4.3,24.5c-1.4-2.1-2.8-4.3-4-6.5c0.7-7.9,1.1-15.3,3.6-23c0.1-0.2-0.3-0.4-0.4-0.2
	c-2.8,6.4-4.4,13.6-4.4,20.7c-0.8-1.6-1.6-3.3-2.3-5c0-0.1,0-0.1,0-0.2c0.7-11,3.3-19.8,9.6-29c0.4-0.7-0.7-1.5-1.2-0.9
	c-6,7.2-9.7,15.6-10.4,24.8c-0.2-0.5-0.3-1-0.5-1.5c-1.3-4.4-2.2-8.9-2.6-13.5c2.2-9.9,5.8-19,12.3-27.1c0.1-0.2-0.2-0.7-0.5-0.4
	c-5.4,5.5-9.7,11.9-12.3,19c0-5.6,0.4-11.1,1-16.6c0-0.4,0.1-0.8,0.2-1.2c1.4-2.7,3-5.1,5.1-7.4c3-3.2,6.7-5.5,10.2-8
	c0.3-0.2,0.2-0.5-0.1-0.4c-5.6,2-10.8,5.8-14.5,10.7c0.7-4.3,1.7-8.5,3.1-12.5c4.2-8,12-11.1,19.6-15.1c0.3-0.2,0.1-0.6-0.2-0.5
	c-5.1,1.2-11.6,3.6-16.3,7.6c2.6-5.5,5.9-10.6,10.2-15.3c9.9-10.8,23.2-19,38.1-19.1c12.5-0.1,24.8,4.4,36,9.5
	c11.3,5.1,21.4,11.6,29.2,21.3c6.8,8.5,11.1,19.3,11.2,30.3c0.1,11.6-5.8,21.2-13.5,29.4c-7.2-7.3-12-19.8-12.1-29.2
	c0-0.4-0.4-0.6-0.7-0.5c-1.7-10.6-5.7-21.1-16.2-25.9c-9.7-4.4-20.6-4.6-29.6,1.8c-14.5,10.4-20.4,35.3-4.6,47.4
	c1.4,1,2.6-0.9,1.8-2.1c-8.8-12.9-7.4-28.8,4.7-39.3c7-6.1,15.7-5.9,24.1-3.4c5.6,1.6,9.2,4.9,11.9,9c-8,0.5-12.4,10.4-14.4,17
	c-1.5,5-2.1,10.6-1.6,16c-6.1,7.6-17.5,3.5-25.8,4c-8.1,0.5-14.4,5.8-14.8,14.3c-0.4,9.1,10.8,15.5,18.4,16.9
	c6.6,1.2,13.2,0.4,19.4-1.9c-0.7,0.2-1,1.2-0.3,1.8c5.4,4.4,11.6,6.5,18.5,7.4c5.5,0.7,13.3,0.8,18.4-2.1c3.9,1.8,7.8,3.2,11.5,4.2
	c5.9,1.5,12.7,1.3,17.7-2.5c4.9-3.7,6.3-10.2,2.1-15.2c-0.6-0.7-1.2-1.3-1.9-1.9c4.8-1.3,9.3-7,11.9-10.3c4.2-5.3,6.6-11.8,5.8-18.6
	c-1.5-11.7-16-20.8-26.6-15.1c0.3-9.6-2.2-19.5-7-28.1c-12.5-22.7-40.3-35.5-64.9-39.4c-31.8-5-56.4,20-64.9,48.6
	c-8.3,27.6-5.2,60.8,13.2,83.6c11.3,14,26.7,23.3,42.7,31.1c13.4,6.6,27,11.5,41.8,14c27.9,4.7,60.8,0.5,83.1-18.3
	c17.5-14.3,29.4-39.6,32.3-61.5C-159,1401.2-161.1,1392.5-167,1384.4z M-312,1431.6c-8.8-1.9-19.8-11.4-12.8-19.7
	c0,2.8,0.8,5.7,1.5,8.1c0.1,0.3,0.7,0.3,0.6-0.1c-0.2-1.9-0.6-3.8-0.8-5.7c-0.2-1.2-0.1-2.4,0-3.7c0.2-0.2,0.5-0.4,0.7-0.6
	c1.7-1.4,3.8-2.2,6-2.5c-1.3,1.4-2,3.5-2.2,5.2c-0.4,3,0.5,5.9,2.4,8.2c0.3,0.4,0.8-0.1,0.6-0.5c-1.1-2.4-0.9-4.9-0.2-7.4
	c0.6-2.2,2.4-3.7,3.3-5.8c0.7,0,1.4,0,2.1,0.1c-1.3,3.1-1,7.3,0.3,10.2c0.1,0.2,0.4,0.1,0.4-0.2c-0.5-3.3-0.7-6.7,0.4-9.9
	c1.3,0.1,2.7,0.2,4,0.3c-1.7,2.2-2.1,5.4-1.7,7.8c0.3,1.5,0.7,3.4,1.8,4.6c1.1,1.3,1.8,1.3,3.3,1.4c0.2,0,0.3-0.3,0.1-0.4
	c-1.6-0.8-2.1-4.6-2.1-6.1c-0.1-2.7,0.3-4.9,2.5-6.6c0.2-0.2,0.3-0.3,0.4-0.5c1.4,0,2.8-0.1,4.1-0.3c-0.8,3.3,0.2,7.3,2.6,9.4
	c0.4,0.3,1-0.1,0.7-0.5c-2-2.9-2.5-6.1-1.6-9.3c2.1-0.7,4-1.8,5.5-3.9c0.5,2.9,1.3,5.8,2.4,8.5c1.7,4.2,4.3,8.2,7.4,11.8
	c-0.2,0-0.3,0-0.3,0.1C-289.7,1430.5-300.7,1434.2-312,1431.6z M-273.6,1439.5c-6.8-0.3-13.5-2.5-19.3-5.9c-0.3-0.2-0.5-0.2-0.7-0.1
	c5.1-1.9,9.8-4.9,13.8-8.7c0.1-0.1,0.1-0.1,0.1-0.2c5,5.5,11.3,10.1,17.9,13.7C-265.7,1438.8-269.5,1439.7-273.6,1439.5z
	 M-240.6,1442c-1.3-0.1-2.6-0.4-3.9-0.7c2.5-0.6,4.7-1.8,6.6-3.5c0.5-0.6-0.3-1.4-0.8-0.9c-2.2,2.1-4.8,3.5-7.7,4
	c-3.8-1-7.5-2.5-11-4.5c4.8,0,9.6-1.2,14-3.2c0.8-0.4,0.2-1.3-0.4-1.2c-6.8,0.9-13.2,2.3-20.1,0.4c0,0,0,0-0.1,0
	c-0.6-0.4-1.2-0.9-1.8-1.3c3.6,0.5,7.1-0.5,10-2.7c0.6-0.4,0.1-1.3-0.6-1c-3.5,1.5-6.4,3-10.4,2.8c-0.1,0-0.1,0-0.1,0
	c-1.8-1.4-3.5-2.8-5.1-4.3c4.3,1.1,9,0.9,12.6-1.6c0.2-0.2,0.1-0.8-0.3-0.7c-5.2,0.6-10,0-14.9-1.7c-0.5-0.2-0.9-0.1-1.2,0.2
	c-0.3-0.3-0.6-0.7-0.9-1c2,0.5,4.2,0.3,6.4,0.1c0.7,0,0.8-1.2,0-1.2c-2.7-0.2-5.5,0.3-8-0.7c-0.6-0.7-1.1-1.3-1.6-2
	c-2.7-3.5-4.4-7.3-5.4-11.3c3.2,3.5,7.7,6.4,11.7,6.6c0.6,0,0.9-0.9,0.3-1.3c-2.6-1.5-5.1-2.8-7.4-4.7c-2.2-1.8-3.9-4.1-5.6-6.4
	c-0.2-2.5-0.2-5,0-7.7c0-0.6,0.1-1.2,0.2-1.8c1.6,3.8,4.8,6.9,8.5,8.7c1.2,0.4,2-0.9,1-1.6c-3.9-2.9-7.4-5.7-8.9-10.4
	c0.8-3.5,2.2-6.9,4-10c0.1-0.1,0.2-0.2,0.2-0.3c-0.1,2.3,0.4,4.9,0.8,6.8c0.9,4.3,3.5,8.7,7.2,11.1c0.5,0.3,1-0.2,0.7-0.7
	c-2.3-3.1-3.7-6.3-4.8-10s0-7.3-0.7-10.9c1.6-1.5,3.2-2.9,4.5-4.6c2.3,4.1,3.8,8.9,5.5,13.6c0.1,0.4,0.5,0.5,0.8,0.5
	c0.1,10.2,4.6,21.2,11.7,28.8c-0.1,0.7,0.5,1.5,1.3,1.3c1,1,2.1,1.9,3.2,2.8c6.9,4.9,16,6.2,22.2,12.3
	C-220.2,1436.7-233.2,1442.8-240.6,1442z M-236.3,1383c0.1,0.1,0.2,0.1,0.4,0.1c10.3-3.3,22.6,4.9,22.9,16c0.1,5.8-3,10.9-6.5,15.2
	c-2.9,3.7-7.4,5.6-10.5,8.8c-6.3-4.5-14.5-6.3-20.8-10.9c-0.4-0.3-0.7-0.6-1.1-0.9C-241.9,1404.4-237.1,1394.1-236.3,1383z"/>
</svg>
