<?xml version="1.0" encoding="utf-8"?>
<!-- Generator: Adobe Illustrator 19.0.0, SVG Export Plug-In . SVG Version: 6.00 Build 0)  -->
<svg version="1.1" id="Слой_1" xmlns="http://www.w3.org/2000/svg" xmlns:xlink="http://www.w3.org/1999/xlink" x="0px" y="0px"
	 viewBox="-37.8 418.2 366 60" style="enable-background:new -37.8 418.2 366 60;" xml:space="preserve">
<path d="M322.7,442.7c-2.9,0-5.2,2.2-5.5,5h0h-0.1H175.5h-0.3h0c-0.3-16.3-13.6-29.5-30-29.5c-16.5,0-29.9,13.3-30,29.8v-0.3h-142
	v0.3c-0.1-2.9-2.5-5.3-5.5-5.3c-3,0-5.5,2.5-5.5,5.5c0,3,2.5,5.5,5.5,5.5c3,0,5.4-2.3,5.5-5.3v0.3h142v-0.3
	c0.1,16.5,13.5,29.8,30,29.8c16.4,0,29.7-13.2,30-29.5h0v0h141.9h0.1h0c0.3,2.8,2.6,5,5.5,5c3,0,5.5-2.5,5.5-5.5
	C328.2,445.2,325.7,442.7,322.7,442.7z M-32.3,452.7c-2.5,0-4.5-2-4.5-4.5s2-4.5,4.5-4.5s4.5,2,4.5,4.5S-29.8,452.7-32.3,452.7z
	 M145.2,477.2c-16,0-29-13-29-29s13-29,29-29s29,13,29,29S161.2,477.2,145.2,477.2z M322.7,452.7c-2.5,0-4.5-2-4.5-4.5
	s2-4.5,4.5-4.5s4.5,2,4.5,4.5S325.2,452.7,322.7,452.7z"/>
<g>
	<path d="M133.4,438.4c-0.5-0.6-1.2,0-0.7,0.6C133,439.3,133.7,438.6,133.4,438.4z"/>
	<path d="M131.6,439.9c-0.4-0.4-1.1,0.2-0.7,0.6C131.4,441.2,132.1,440.5,131.6,439.9z"/>
	<path d="M132.3,445c0.5,0.6,1.1,0,0.6-0.6C132.7,444.2,132,444.7,132.3,445z"/>
	<path d="M135.4,449.3c0-0.1-0.1-0.2-0.1-0.3c-0.2-0.1-0.4-0.2-0.5-0.1c-0.1,0-0.2,0.1-0.2,0.2c-0.1,0.1,0,0.3,0.1,0.3
		c0,0,0,0.1,0.1,0.1c0.1,0.1,0.2,0.1,0.3,0.2C135.1,449.8,135.4,449.6,135.4,449.3z"/>
	<path d="M134.5,451.1c-0.2,0.1-0.2,0.4,0,0.6c0.1,0.1,0.3,0.2,0.4,0.3c0.2,0.1,0.5-0.2,0.4-0.4c0-0.2-0.2-0.3-0.3-0.4
		C135,450.9,134.7,450.9,134.5,451.1z"/>
	<path d="M142,454c0.3,0.3,0.9-0.3,0.7-0.6C142.2,452.8,141.5,453.4,142,454z"/>
	<path d="M138.9,455.2c0.4,0.4,1.2-0.3,0.9-0.8C139.2,453.8,138.4,454.6,138.9,455.2z"/>
	<path d="M143.6,456.4c0.5,0.6,1.3-0.2,0.8-0.7C144,455.1,143.1,455.8,143.6,456.4z"/>
	<path d="M149.2,457.2c0.4,0.4,1-0.2,0.7-0.6C149.5,456.2,148.8,456.8,149.2,457.2z"/>
	<path d="M151.2,454.1c-0.3,0.1-0.5,0.4-0.4,0.7c0.1,0.3,0.4,0.4,0.7,0.2c0.1-0.1,0.2-0.2,0.3-0.3c0-0.1,0.1-0.2,0-0.3
		C151.7,454.2,151.5,454.1,151.2,454.1z"/>
	<path d="M155.8,455.8c0.4,0.4,1.1-0.2,0.7-0.6C156,454.6,155.3,455.2,155.8,455.8z"/>
	<path d="M158.3,453.8c0.5,0.6,1.3-0.1,0.8-0.7C158.6,452.6,157.8,453.2,158.3,453.8z"/>
	<path d="M159.6,448.8c-0.5-0.6-1.3,0.1-0.8,0.7C159.1,449.8,159.9,449.1,159.6,448.8z"/>
	<path d="M153,458.2c0.4,0.4,1.1-0.2,0.7-0.6C153.2,457,152.5,457.6,153,458.2z"/>
	<path d="M147.4,454.1c0.3,0.3,0.8-0.2,0.6-0.5C147.6,453.2,147,453.7,147.4,454.1z"/>
	<path d="M130.9,448.8c0.4,0.4,1-0.1,0.6-0.5C131.3,448,130.7,448.5,130.9,448.8z"/>
</g>
<path d="M164.9,444.7c-1.3-1.7-2.9-3.2-4.7-4.4c-2.6-1.8-6.4-3.6-9.5-1.8c-0.6,0.3-0.2,1.3,0.5,1c4-2.2,9.1,2,11.7,4.7
	c1.2,1.3,2,2.6,2.1,4.3c-0.7-1.8-2.2-3.2-4.2-3.6c-0.1,0-0.2,0.1-0.1,0.2c2.4,1.1,4,2.9,4.1,5.6c0,0.1,0,0.2-0.1,0.3
	c-0.2-1.7-1.1-3.5-2.6-4.2c-0.1-0.1-0.2,0.1-0.1,0.2c2,1.2,2.2,3.2,2.4,5.3c-0.1,0.3-0.2,0.6-0.3,0.8c-0.1-0.5-0.2-1.1-0.3-1.5
	c-0.3-1.2-1-2.3-2-3.2c-0.1-0.1-0.3,0.1-0.2,0.2c0.7,0.8,1.2,1.8,1.5,2.8c0.2,0.5,0.3,1.1,0.3,1.6c0.1,0.6-0.1,1.1,0,1.6
	c-0.3,0.7-0.7,1.4-1,2.1c0,0,0,0.1-0.1,0.1c0.2-2.1-0.2-4.5-1.7-6c-0.1-0.1-0.3,0-0.2,0.2c1.6,2.3,1.4,4.6,1.1,7.2
	c-0.5,0.8-1.1,1.6-1.7,2.3c0.3-0.9,0.4-2,0.5-2.9c0.1-1.2,0.2-2.8-0.6-3.9c0-0.1-0.1,0-0.1,0.1c0.6,1,0.5,2.5,0.4,3.6
	c-0.1,1.3-0.3,2.7-0.9,3.9c0,0,0,0,0,0c-0.2,0.2-0.5,0.5-0.7,0.7c0.3-0.7,0.4-1.6,0.6-2.1c0.2-0.7,0.5-2-0.2-2.5c0,0-0.1,0-0.1,0.1
	c0.5,0.7,0,2.1-0.2,2.8c-0.2,0.9-0.7,1.6-1,2.4c-2.5,1.7-5.6,2.4-8.6,2.6c-2.9,0.2-5.7-0.2-8.4-1c-0.5-0.7-1-1.4-1.2-2.3
	c0-0.1-0.2-0.1-0.2,0.1c0.1,0.8,0.5,1.5,1,2.1c-0.4-0.1-0.8-0.3-1.1-0.4c0,0,0,0,0,0c-0.4-0.6-0.7-1.3-0.8-2c0-0.1-0.2-0.1-0.2,0
	c0,0.7,0.2,1.4,0.6,1.9c-0.5-0.2-1-0.4-1.4-0.6c-0.5-0.7-0.6-1.5-0.6-2.3c0-0.1-0.1-0.1-0.2,0c0,0.7,0,1.5,0.4,2.1
	c-0.4-0.2-0.8-0.4-1.1-0.6c0,0,0-0.1,0-0.1c-1-1.1-1.3-2.3-1.6-3.7c0-0.1-0.1,0-0.1,0c0.1,1.3,0.4,2.7,1.3,3.6
	c-0.8-0.4-1.6-0.9-2.3-1.4c-0.7-1.1-1.1-2.2-1.4-3.5c0-0.1-0.2-0.1-0.2,0.1c0.2,1,0.5,2.2,1,3.1c-0.5-0.3-1-0.7-1.4-1
	c-0.8-1.4-0.8-3-0.8-4.7c0-0.1-0.2-0.1-0.2,0c0,1.5-0.1,3,0.5,4.3c0,0,0,0,0,0c-0.4-0.3-0.7-0.6-1.1-0.9c-0.4-1.1-0.3-2.2-0.4-3.4
	c0-0.1-0.2-0.1-0.2,0c-0.1,1-0.1,2,0.1,2.9c-0.4-0.4-0.8-0.9-1.2-1.3c0.1,0,0.1-0.1,0.1-0.2c-0.7-1.8-0.4-3.4,0.3-5.2
	c0.1-0.1-0.1-0.2-0.2-0.1c-0.8,1.2-1.4,3.2-0.8,4.7c-0.3-0.4-0.5-0.8-0.8-1.3c0.1-1.5,0.2-3,0.7-4.4c0,0-0.1-0.1-0.1,0
	c-0.5,1.2-0.8,2.6-0.9,4c-0.2-0.3-0.3-0.6-0.4-1c0,0,0,0,0,0c0.1-2.1,0.6-3.8,1.9-5.6c0.1-0.1-0.1-0.3-0.2-0.2c-1.2,1.4-1.9,3-2,4.8
	c0-0.1-0.1-0.2-0.1-0.3c-0.3-0.8-0.4-1.7-0.5-2.6c0.4-1.9,1.1-3.7,2.4-5.2c0,0,0-0.1-0.1-0.1c-1,1.1-1.9,2.3-2.4,3.7
	c0-1.1,0.1-2.2,0.2-3.2c0-0.1,0-0.2,0-0.2c0.3-0.5,0.6-1,1-1.4c0.6-0.6,1.3-1.1,2-1.5c0.1,0,0-0.1,0-0.1c-1.1,0.4-2.1,1.1-2.8,2.1
	c0.1-0.8,0.3-1.6,0.6-2.4c0.8-1.6,2.3-2.1,3.8-2.9c0.1,0,0-0.1,0-0.1c-1,0.2-2.2,0.7-3.1,1.5c0.5-1.1,1.1-2,2-3
	c1.9-2.1,4.5-3.7,7.4-3.7c2.4,0,4.8,0.9,7,1.8c2.2,1,4.1,2.2,5.6,4.1c1.3,1.6,2.1,3.7,2.2,5.9c0,2.2-1.1,4.1-2.6,5.7
	c-1.4-1.4-2.3-3.8-2.3-5.6c0-0.1-0.1-0.1-0.1-0.1c-0.3-2.1-1.1-4.1-3.1-5c-1.9-0.9-4-0.9-5.7,0.3c-2.8,2-3.9,6.8-0.9,9.2
	c0.3,0.2,0.5-0.2,0.3-0.4c-1.7-2.5-1.4-5.6,0.9-7.6c1.4-1.2,3-1.1,4.7-0.7c1.1,0.3,1.8,0.9,2.3,1.7c-1.5,0.1-2.4,2-2.8,3.3
	c-0.3,1-0.4,2.1-0.3,3.1c-1.2,1.5-3.4,0.7-5,0.8c-1.6,0.1-2.8,1.1-2.9,2.8c-0.1,1.8,2.1,3,3.6,3.3c1.3,0.2,2.6,0.1,3.7-0.4
	c-0.1,0-0.2,0.2-0.1,0.4c1,0.9,2.2,1.3,3.6,1.4c1.1,0.1,2.6,0.2,3.6-0.4c0.8,0.3,1.5,0.6,2.2,0.8c1.1,0.3,2.5,0.3,3.4-0.5
	c0.9-0.7,1.2-2,0.4-2.9c-0.1-0.1-0.2-0.3-0.4-0.4c0.9-0.3,1.8-1.4,2.3-2c0.8-1,1.3-2.3,1.1-3.6c-0.3-2.3-3.1-4-5.1-2.9
	c0.1-1.9-0.4-3.8-1.4-5.4c-2.4-4.4-7.8-6.9-12.6-7.6c-6.2-1-10.9,3.9-12.6,9.4c-1.6,5.3-1,11.8,2.6,16.2c2.2,2.7,5.2,4.5,8.3,6
	c2.6,1.3,5.2,2.2,8.1,2.7c5.4,0.9,11.8,0.1,16.1-3.5c3.4-2.8,5.7-7.7,6.2-11.9C166.5,447.9,166,446.2,164.9,444.7z M136.9,453.8
	c-1.7-0.4-3.8-2.2-2.5-3.8c0,0.5,0.2,1.1,0.3,1.6c0,0.1,0.1,0.1,0.1,0c0-0.4-0.1-0.7-0.2-1.1c0-0.2,0-0.5,0-0.7c0,0,0.1-0.1,0.1-0.1
	c0.3-0.3,0.7-0.4,1.2-0.5c-0.2,0.3-0.4,0.7-0.4,1c-0.1,0.6,0.1,1.1,0.5,1.6c0.1,0.1,0.2,0,0.1-0.1c-0.2-0.5-0.2-0.9,0-1.4
	c0.1-0.4,0.5-0.7,0.6-1.1c0.1,0,0.3,0,0.4,0c-0.2,0.6-0.2,1.4,0.1,2c0,0,0.1,0,0.1,0c-0.1-0.6-0.1-1.3,0.1-1.9c0.3,0,0.5,0,0.8,0.1
	c-0.3,0.4-0.4,1-0.3,1.5c0.1,0.3,0.1,0.7,0.3,0.9c0.2,0.3,0.3,0.3,0.6,0.3c0,0,0.1-0.1,0-0.1c-0.3-0.2-0.4-0.9-0.4-1.2
	c0-0.5,0.1-0.9,0.5-1.3c0,0,0.1-0.1,0.1-0.1c0.3,0,0.5,0,0.8-0.1c-0.2,0.6,0,1.4,0.5,1.8c0.1,0.1,0.2,0,0.1-0.1
	c-0.4-0.6-0.5-1.2-0.3-1.8c0.4-0.1,0.8-0.4,1.1-0.7c0.1,0.6,0.3,1.1,0.5,1.6c0.3,0.8,0.8,1.6,1.4,2.3c0,0-0.1,0-0.1,0
	C141.2,453.6,139,454.3,136.9,453.8z M144.3,455.3c-1.3-0.1-2.6-0.5-3.7-1.1c-0.1,0-0.1,0-0.1,0c1-0.4,1.9-0.9,2.7-1.7c0,0,0,0,0,0
	c1,1.1,2.2,2,3.5,2.6C145.8,455.2,145.1,455.4,144.3,455.3z M150.7,455.8c-0.2,0-0.5-0.1-0.7-0.1c0.5-0.1,0.9-0.3,1.3-0.7
	c0.1-0.1-0.1-0.3-0.2-0.2c-0.4,0.4-0.9,0.7-1.5,0.8c-0.7-0.2-1.4-0.5-2.1-0.9c0.9,0,1.9-0.2,2.7-0.6c0.2-0.1,0-0.3-0.1-0.2
	c-1.3,0.2-2.6,0.4-3.9,0.1c0,0,0,0,0,0c-0.1-0.1-0.2-0.2-0.3-0.3c0.7,0.1,1.4-0.1,1.9-0.5c0.1-0.1,0-0.3-0.1-0.2
	c-0.7,0.3-1.2,0.6-2,0.5c0,0,0,0,0,0c-0.3-0.3-0.7-0.5-1-0.8c0.8,0.2,1.7,0.2,2.4-0.3c0,0,0-0.2-0.1-0.1c-1,0.1-1.9,0-2.9-0.3
	c-0.1,0-0.2,0-0.2,0c-0.1-0.1-0.1-0.1-0.2-0.2c0.4,0.1,0.8,0.1,1.2,0c0.1,0,0.2-0.2,0-0.2c-0.5,0-1.1,0.1-1.5-0.1
	c-0.1-0.1-0.2-0.3-0.3-0.4c-0.5-0.7-0.9-1.4-1.1-2.2c0.6,0.7,1.5,1.2,2.3,1.3c0.1,0,0.2-0.2,0.1-0.3c-0.5-0.3-1-0.5-1.4-0.9
	c-0.4-0.4-0.7-0.8-1.1-1.2c0-0.5,0-1,0-1.5c0-0.1,0-0.2,0-0.3c0.3,0.7,0.9,1.3,1.6,1.7c0.2,0.1,0.4-0.2,0.2-0.3
	c-0.8-0.6-1.4-1.1-1.7-2c0.2-0.7,0.4-1.3,0.8-1.9c0,0,0,0,0-0.1c0,0.5,0.1,0.9,0.1,1.3c0.2,0.8,0.7,1.7,1.4,2.1
	c0.1,0.1,0.2,0,0.1-0.1c-0.4-0.6-0.7-1.2-0.9-1.9c-0.2-0.7,0-1.4-0.1-2.1c0.3-0.3,0.6-0.6,0.9-0.9c0.4,0.8,0.7,1.7,1.1,2.6
	c0,0.1,0.1,0.1,0.2,0.1c0,2,0.9,4.1,2.3,5.6c0,0.1,0.1,0.3,0.3,0.3c0.2,0.2,0.4,0.4,0.6,0.5c1.3,0.9,3.1,1.2,4.3,2.4
	C154.6,454.8,152.1,456,150.7,455.8z M151.5,444.4C151.5,444.4,151.5,444.4,151.5,444.4c2.1-0.6,4.4,1,4.5,3.1
	c0,1.1-0.6,2.1-1.3,2.9c-0.6,0.7-1.4,1.1-2,1.7c-1.2-0.9-2.8-1.2-4-2.1c-0.1-0.1-0.1-0.1-0.2-0.2
	C150.4,448.5,151.3,446.5,151.5,444.4z"/>
</svg>
