<?xml version="1.0" encoding="utf-8"?>
<!-- Generator: Adobe Illustrator 19.0.0, SVG Export Plug-In . SVG Version: 6.00 Build 0)  -->
<svg version="1.1" id="Ebene_1_Kopie" xmlns="http://www.w3.org/2000/svg" xmlns:xlink="http://www.w3.org/1999/xlink" x="0px"
	 y="0px" viewBox="106.7 133.6 247.1 247.1" style="enable-background:new 106.7 133.6 247.1 247.1;" xml:space="preserve">
<style type="text/css">
	.st0{fill:none;stroke:#C5BCBA;stroke-width:2;stroke-miterlimit:10;}
</style>
<g id="XMLID_392_">
	<path id="XMLID_13_" class="st0" d="M216.6,140.5c7.5-7.9,19.8-7.9,27.4,0c7.5,7.9,22.3,11.9,32.7,8.8c10.5-3.1,21.1,3.1,23.7,13.7
		c2.6,10.6,13.3,21.4,24,24s16.8,13.2,13.7,23.7c-3.1,10.5,0.8,25.2,8.8,32.7s7.9,19.8,0,27.4s-11.9,22.3-8.8,32.7
		c3.1,10.5-3.1,21.1-13.7,23.7s-21.4,13.3-24,24s-13.2,16.8-23.7,13.7c-10.5-3.1-25.2,0.8-32.7,8.8c-7.5,7.9-19.8,7.9-27.4,0
		c-7.5-7.9-22.3-11.9-32.7-8.8c-10.5,3.1-21.1-3.1-23.7-13.7s-13.3-21.4-24-24s-16.8-13.2-13.7-23.7s-0.8-25.2-8.8-32.7
		s-7.9-19.8,0-27.4s11.9-22.3,8.8-32.7c-3.1-10.5,3.1-21.1,13.7-23.7c10.6-2.6,21.4-13.3,24-24c2.6-10.6,13.2-16.8,23.7-13.7
		C194.4,152.4,209.1,148.5,216.6,140.5z"/>
</g>
</svg>
