<?xml version="1.0" encoding="utf-8"?>
<!-- Generator: Adobe Illustrator 19.0.0, SVG Export Plug-In . SVG Version: 6.00 Build 0)  -->
<svg version="1.1" id="Objects" xmlns="http://www.w3.org/2000/svg" xmlns:xlink="http://www.w3.org/1999/xlink" x="0px" y="0px"
	 viewBox="282.8 65.8 410.3 256.1" style="enable-background:new 282.8 65.8 410.3 256.1;" xml:space="preserve">
<style type="text/css">
	.st0{fill:#454C53;}
	.st1{display:none;fill:#454C53;enable-background:new    ;}
	.st2{font-family:'ArialMT';}
	.st3{font-size:31.5163px;}
	.st4{display:none;}
	.st5{display:inline;fill:#454C53;}
</style>
<g>
	<path class="st0" d="M666.5,158.1c-4.9,8.5-9.8,12-17,14.5c-7.1,2.5-19.4-1.1-19.4-1.1c6.7-8.2,12.5-11.9,22.6-12.5
		C658,158.7,661.4,161.1,666.5,158.1z M647.4,176.6c-5.4,2.4-8.5-0.4-13.7-0.7c-10.1-0.6-16.2,2.5-23.7,9.9c0,0,11.8,4.9,19.1,3.3
		C636.4,187.4,641.7,184.5,647.4,176.6z M670,139.9c-10,1.7-15.5,6.1-21.3,15c0,0,12.6,2.2,19.5-1.1s11.5-7.3,15.4-16.4
		C678.9,141.1,675.3,139,670,139.9z M604,206.6c-5.8,1.1-8.2-2.3-13.2-3.7c-9.7-2.7-16.4-1.1-25.3,4.5c0,0,10.5,7.4,18,7.3
		C591,214.7,596.7,213,604,206.6z M665.2,136.4c0,0,10.6,0.7,16-2.6s8.8-6.9,11.5-14.7C681.9,127.5,672.9,120.2,665.2,136.4z
		 M606.9,203.1c7.5-0.9,13-3.1,19.5-10.3c-5.7,1.8-8.4-1.3-13.5-2.2c-9.9-1.7-16.4,0.7-24.6,7.2C588.3,197.8,599.5,204,606.9,203.1z
		 M587.8,176.6c-8.2,1.9-12.1,4.7-16.5,9.7c-4.4,5.1-7.2,17.2-7.2,17.2C586.2,200.9,578,188.6,587.8,176.6z M607.7,182.3
		c21.1-7.4,10.3-17.6,17.4-31.4c-7.6,3.6-10.8,7.2-14.1,13.1C607.8,169.8,607.7,182.3,607.7,182.3z M591.8,176.2
		c-3.8,5.5-5.3,17.9-5.3,17.9c21.7-5,12.1-16.3,20.6-29.3C599.1,167.5,595.6,170.7,591.8,176.2z M641.6,135
		c-7.2,4.5-10.1,8.4-12.6,14.6c-2.6,6.2-1.4,18.7-1.4,18.7C647.8,158.6,636,149.5,641.6,135z M668.6,104.2c-5.3,5-7,8.8-8.1,14.4
		s2,15.6,2,15.6C677.1,123,666.7,117.2,668.6,104.2z M656.3,117.2c-6.7,5.3-9.1,9.6-11.1,16.1c-1.9,6.5,0.6,18.8,0.6,18.8
		C665,140.1,652.3,132.4,656.3,117.2z M682.6,118.2c8.6-5,8.7-11,9.1-19.7c0.2-4.2,1.4-10,1.4-10s-4.9,5.2-7.1,6.9
		c-6.7,5.4-11.4,7.6-12.1,17.2c-0.4,5.5,0.8,8.1,0.8,8.1S677.6,121.1,682.6,118.2z M592.4,247c0,0,8.2,6.2,14.2,6.4
		c6.1,0.2,10.8-1,16.9-6C610.5,248.7,607,238.1,592.4,247z M573.1,252c0,0,7.4,7.1,13.4,7.9c6,0.9,10.8,0.2,17.3-4.1
		C590.8,255.6,588.5,244.7,573.1,252z M611.1,240c0,0,8.8,5.3,14.9,4.8c6.1-0.5,10.7-2.2,16.3-7.9
		C629.5,239.7,624.7,229.5,611.1,240z M533.6,255.5c0,0,5.7,8.5,11.4,10.6c5.7,2.1,10.5,2.5,17.7-0.2
		C550,262.8,550.2,251.7,533.6,255.5z M628.7,230.8c0,0,7.8,3.6,12.8,2.6c5-0.9,8.6-2.7,12.8-7.7
		C643.7,228.2,638.8,220.8,628.7,230.8z M553.4,254.8c0,0,6.6,7.9,12.5,9.3c5.9,1.5,10.7,1.4,17.6-2.2
		C570.6,260.3,569.6,249.2,553.4,254.8z M544,241.3c-4.8,2.5-10.3,10.9-10.3,10.9c16.9,4.5,15.1-6.9,25.5-13.4
		C552.4,237.8,548.7,238.8,544,241.3z M594.5,230.1c-6.8,0.5-10.2,2.3-14.3,5.8s-7.8,12.8-7.8,12.8
		C590,249.5,585.7,238.8,594.5,230.1z M577,235.4c-6.8-0.2-10.3,1.2-14.8,4.2s-9.1,11.9-9.1,11.9C570.4,254.2,567.4,243,577,235.4z
		 M611.4,222.9c-6.7,1.3-9.9,3.4-13.7,7.3c-3.7,3.9-6.4,13.6-6.4,13.6C609,242.7,603.6,232.5,611.4,222.9z M640.5,207.6
		c-5.4,2.3-7.8,4.6-10.2,8.5c-2.5,3.9-3,12.3-3,12.3C641.1,224.6,636.1,216.9,640.5,207.6z M627.6,213.8c-6.6,2.1-9.6,4.5-12.9,8.9
		c-3.3,4.3-4.9,14.3-4.9,14.3C627.2,233.8,620.7,224.2,627.6,213.8z M642.1,215.4c-1.9,4-1.7,6.3-1.7,6.3s2.1,1.1,6.6,0.4
		c7.9-1.3,9.7-5.7,12.5-12.2c1.3-3.1,3.9-7.1,3.9-7.1s-5.2,2.5-7.3,3.1C649.6,208.1,645.4,208.5,642.1,215.4z M525.7,253.5
		c9.3-2,8.7-11.3,15.2-13.4c-6.5-1.7-10.3-1.1-15.4,0.9c-3.6,1.4-8.4,6.7-10.9,9.4c-20-2.7-38.2-7.7-55.8-15.6
		c2.6,0.4,5.1,0.7,7.7,0.9c4.7,0.5,9.2,0.8,13.7,0.9c4.4,0.1,8.7,0.1,12.8,0c4.1-0.2,8-0.4,11.7-0.8c3.7-0.4,7.2-0.8,10.5-1.3
		c6.6-1,12.2-2.2,16.8-3.2c2.3-0.5,4.4-1,6.1-1.5c1.8-0.5,3.3-0.9,4.5-1.2c2.4-0.7,3.7-1.1,3.7-1.1s-1.3,0.2-3.8,0.7
		c-1.2,0.2-2.8,0.5-4.6,0.8c-1.8,0.3-3.9,0.6-6.2,1c-4.7,0.7-10.3,1.4-16.9,1.9c-3.3,0.2-6.7,0.4-10.4,0.5s-7.5,0.2-11.5,0.1
		c-4-0.1-8.2-0.3-12.5-0.7c-4.3-0.3-8.7-0.8-13.3-1.5c-4.5-0.6-9.2-1.5-13.9-2.5c-4.7-1-9.5-2.1-14.3-3.4c-0.3-0.1-0.6-0.2-0.8-0.2
		c-0.3-0.2-0.6-0.3-0.9-0.5c0.2,0.2,0.5,0.3,0.7,0.5c-9.3-2.5-18.9-5.6-28.6-8.8c-10.1-3.3-20.6-6.5-31.4-8.7s-21.8-3.5-32.8-3.2
		c-5.5,0.2-11,0.8-16.3,2.1c-5.3,1.2-10.5,3.1-15.2,5.8c-4.7,2.6-8.9,6.1-12.3,10c-1.7,2-3.2,4-4.5,6.2c-1.3,2.2-2.5,4.3-3.4,6.6
		c-0.5,1.1-0.9,2.2-1.4,3.3c-0.4,1.1-0.8,2.2-1.1,3.4c-0.7,2.4-1,4.8-1,7.2c-0.1,4.7,0.7,9.1,2.2,13.1c2.9,8.1,8.3,14.2,14,17.9
		c2.9,1.9,5.8,3.2,8.6,4.1s5.4,1.4,7.8,1.7c4.8,0.5,8.5,0.2,11,0c1.3-0.1,2.2-0.3,2.9-0.4c0.6-0.1,1-0.2,1-0.2s-0.3,0-1,0.1
		c-0.7,0-1.6,0.1-2.9,0.1c-2.5,0-6.2,0-10.8-0.9c-4.6-0.8-10-2.7-15.1-6.5c-2.5-1.9-4.9-4.3-7-7.2c-2-2.9-3.7-6.2-4.8-9.9
		c-1.1-3.7-1.7-7.7-1.4-11.7c0.1-2,0.5-4.1,1.1-5.9c0.3-1,0.8-2,1.2-3c0.5-1,0.9-2,1.4-3c0.9-2,2.1-3.9,3.3-5.8
		c1.3-1.9,2.7-3.6,4.2-5.3c3.1-3.3,6.9-6.1,11-8.3c8.4-4.5,18.4-6.2,28.7-6.4c10.3-0.2,20.8,1.2,31.2,3.3c10.4,2.2,20.6,5,30.7,8.3
		c2.5,0.8,5.1,1.6,7.6,2.4c2.5,0.8,5.1,1.5,7.6,2.2c5,1.4,10.1,2.8,15,4c5,1.2,9.9,2.2,14.8,3.1c1,0.2,2.1,0.3,3.1,0.5
		c18.4,9.6,37.5,16,58.7,20c1.8,3.3,6,9.5,9.9,11.5c5.4,2.7,10.1,3.6,17.7,1.7C534,265.7,534.6,256.7,525.7,253.5z M575.6,143.1
		c0,0,10.3,0.3,15.3-3.1c5-3.4,8.2-7.1,10.2-14.7C591.4,133.9,582.3,127.4,575.6,143.1z M562.8,158.4c0,0,10.2,1.4,15.5-1.4
		c5.4-2.8,8.9-6.1,11.7-13.4C579.4,151,571.2,143.5,562.8,158.4z M586.7,126.5c0,0,10.3-0.9,14.9-4.8c4.7-4,7.4-8,8.6-15.9
		C601.5,115.5,591.7,110,586.7,126.5z M532.8,184.3c0,0,9.6,3.6,15.4,2s10-4,14.3-10.5C550.4,180.6,544.1,171.5,532.8,184.3z
		 M595.7,108.7c0,0,8.4-1.6,11.9-5.3c3.5-3.6,5.5-7.2,5.9-13.8C606.4,97.9,598,94.7,595.7,108.7z M577.1,160.4
		c-11.4,6.2-18.7-2.2-28.6,11.7c0,0,9.9,2.5,15.6,0.3C569.7,170.3,573.5,167.4,577.1,160.4z M543.8,155.8c-6,3.1-8.4,6.1-10.8,10.9
		c-2.4,4.8-2.1,14.8-2.1,14.8C547.3,175.3,539.1,167.2,543.8,155.8z M567.5,128.1c-5.2,4.4-7,7.8-8.3,13s1.2,14.9,1.2,14.9
		C575.1,146.5,565.4,140.3,567.5,128.1z M556.4,142.6c-5.6,3.8-7.7,7-9.6,12c-1.9,5.1-0.4,15-0.4,15
		C562,161.7,553,154.4,556.4,142.6z M577,112.4c-4.7,5-6.1,8.6-6.8,13.9c-0.7,5.4,2.8,14.8,2.8,14.8
		C586.6,129.9,576.2,124.8,577,112.4z M593.2,107.6c9-11.1,0.4-14.5-1.4-24.6c-3.1,5-3.7,8.3-3.4,12.9S593.2,107.6,593.2,107.6z
		 M584.9,95.6c-4.1,5.5-5.2,9.3-5.3,14.7c-0.2,5.5,4.3,14.4,4.3,14.4C596.2,112.1,585.4,108,584.9,95.6z M599.9,94.6
		c0,0,2.3-0.3,5.6-3.5c5.7-5.6,4.6-10.3,3.1-17.2c-0.7-3.3-1-8.1-1-8.1s-2.8,5-4.1,6.8c-4.1,5.6-7.3,8.2-5.9,15.9
		C598.4,92.8,599.9,94.6,599.9,94.6z M307.5,203.6c5.6-3.2,12.2-5.8,19.5-7.3c7.3-1.5,15.2-2.3,23.5-2.2h1.5h0.7h0.8h1.6l1.5,0.1
		c2,0.1,4.1,0.3,6.2,0.5c4.2,0.5,8.4,1.2,12.6,2.1c8.5,1.8,16.9,4.4,25.4,7.2s17,5.7,25.6,8.3c8.5,2.6,17.1,4.8,25.5,6.5
		c8.4,1.6,16.6,2.6,24.5,3.1c7.8,0.5,15.2,0.3,22-0.1c6.8-0.4,13-1.3,18.4-2.2c4.3-0.7,8.2-1.6,11.5-2.3c4.6-0.6,9.2-1.4,13.9-2.3
		c3.6,3,11.2,8.4,16.6,8.9c7.5,0.8,13.4-0.3,21.3-5.9c-9.6,0.4-14.8-9-24.6-9.2c8.3-5.9,5.2-15.6,11.7-22.4
		c-8.3,1-12.5,3.3-17.4,7.9c-3.6,3.3-6.8,11.5-8.5,15.8c-19.7,4.8-39,7.2-58.5,7.2c-2-0.2-4-0.3-6.1-0.5c-7.1-0.7-14.5-2-22-3.6
		c21.3-2.8,41.3-8.8,61.4-18.3c3.4,1.6,10.4,4.2,14.7,3.5c6-0.9,10.4-3,15.3-8.9c-7.2,3-11.9-4.7-21-2.1c6.4-7,0.5-14.3,4.5-19.8
		c-6.3,2.5-9,5.1-11.9,9.7c-2.1,3.3-2.9,10.3-3.4,14c-20.1,10.7-40.2,17.6-61.9,21.3c-7.9-1.8-16-4.2-24.1-6.8
		c-8.4-2.7-16.8-5.8-25.4-8.6c-8.6-2.9-17.3-5.5-26.2-7.4c-4.4-0.9-8.9-1.6-13.4-2.1c-2.2-0.2-4.4-0.4-6.7-0.5l-1.7-0.2h-1.6h-0.8
		l-0.9,0.2l-1.6,0.2c-4.3,0.1-8.5,0.4-12.7,1c-4.1,0.5-8.2,1.3-12,2.3c-7.7,2-14.8,5.1-20.6,9.1s-10.3,8.8-13.3,13.6
		c-3.1,4.8-4.9,9.3-6.1,13.1c-1.2,3.8-1.8,6.9-2.1,9c-0.2,1-0.3,1.8-0.3,2.4c-0.1,0.5-0.1,0.8-0.1,0.8s0.3-1.1,0.9-3.1
		s1.6-4.9,3.1-8.5c0.8-1.8,1.8-3.7,2.9-5.7s2.5-4.1,4.2-6.2C297.5,210.9,301.9,206.8,307.5,203.6z"/>
	<text transform="matrix(1 0 0 1 343.0903 306.8247)" class="st1 st2 st3">ORGANIC WHEAT</text>
	<text transform="matrix(1 0 0 1 397.1094 345.6558)" class="st1 st2" style="font-size:18.2937px;">natural cereal</text>
	<g class="st4">
		<path class="st5" d="M325.7,320.3c0,0,1.1,0,3.1-0.1c2.1-0.1,5.1-0.1,8.9-0.2c7.7-0.1,18.6-0.5,31.7-0.6
			c6.6-0.1,13.7-0.2,21.2-0.3c7.5-0.1,15.5-0.2,23.7-0.2s16.7-0.1,25.3-0.1s17.4,0,26.1-0.1c8.8,0,17.5,0,26.1,0.1
			c8.6,0,17.1,0.1,25.3,0.1c8.2,0.1,16.1,0.2,23.7,0.2c7.5,0.1,14.6,0.2,21.2,0.3c13.1,0.2,24.1,0.5,31.7,0.6
			c3.8,0.1,6.8,0.2,8.9,0.2c2.1,0.1,3.1,0.1,3.1,0.1s-1.1,0-3.1,0.1c-2.1,0.1-5.1,0.1-8.9,0.2c-7.7,0.1-18.6,0.5-31.7,0.6
			c-6.6,0.1-13.7,0.2-21.2,0.3c-7.5,0.1-15.5,0.1-23.7,0.2c-8.2,0-16.7,0.1-25.3,0.1c-8.6,0-17.4,0-26.1,0.1c-8.8,0-17.5,0-26.1-0.1
			c-8.6-0.1-17.1-0.1-25.3-0.1c-8.2-0.1-16.1-0.2-23.7-0.2c-7.5-0.1-14.6-0.2-21.2-0.3c-13.1-0.2-24.1-0.5-31.7-0.6
			c-3.8-0.1-6.8-0.2-8.9-0.2C326.8,320.4,325.7,320.3,325.7,320.3z"/>
	</g>
</g>
</svg>
