<?xml version="1.0" encoding="utf-8"?>
<!-- Generator: Adobe Illustrator 19.0.0, SVG Export Plug-In . SVG Version: 6.00 Build 0)  -->
<svg version="1.1" id="Слой_1" xmlns="http://www.w3.org/2000/svg" xmlns:xlink="http://www.w3.org/1999/xlink" x="0px" y="0px"
	 viewBox="106.7 133.6 247.1 247.1" style="enable-background:new 106.7 133.6 247.1 247.1;" xml:space="preserve">
<style type="text/css">
	.st0{fill:#C5BCBA;}
	.st1{fill:none;stroke:#C5BCBA;stroke-width:2;stroke-miterlimit:10;}
</style>
<g id="Ebene_1">
	<g id="XMLID_391_">
		<path id="XMLID_402_" class="st0" d="M217,143.4c7.3-7.7,19.3-7.7,26.7,0c7.3,7.7,21.7,11.6,31.9,8.6s20.6,3,23.1,13.3
			c2.5,10.4,13,20.9,23.4,23.4s16.4,12.9,13.3,23.1c-3,10.2,0.8,24.6,8.6,31.9s7.7,19.3,0,26.7c-7.7,7.3-11.6,21.7-8.6,31.9
			c3,10.2-3,20.6-13.3,23.1c-10.4,2.5-20.9,13-23.4,23.4s-12.9,16.4-23.1,13.3c-10.2-3-24.6,0.8-31.9,8.6c-7.3,7.7-19.3,7.7-26.7,0
			c-7.3-7.7-21.7-11.6-31.9-8.6s-20.6-3-23.1-13.3c-2.5-10.4-13-20.9-23.4-23.4s-16.4-12.9-13.3-23.1c3-10.2-0.8-24.6-8.6-31.9
			c-7.7-7.3-7.7-19.3,0-26.7s11.6-21.7,8.6-31.9c-3-10.2,3-20.6,13.3-23.1c10.4-2.5,20.9-13,23.4-23.4s12.9-16.4,23.1-13.3
			C195.2,155,209.6,151.2,217,143.4z"/>
	</g>
</g>
<g id="Ebene_1_Kopie">
	<g id="XMLID_392_">
		<path id="XMLID_404_" class="st1" d="M216.6,140.5c7.5-7.9,19.8-7.9,27.4,0c7.5,7.9,22.3,11.9,32.7,8.8
			c10.5-3.1,21.1,3.1,23.7,13.7c2.6,10.6,13.3,21.4,24,24s16.8,13.2,13.7,23.7c-3.1,10.5,0.8,25.2,8.8,32.7s7.9,19.8,0,27.4
			s-11.9,22.3-8.8,32.7c3.1,10.5-3.1,21.1-13.7,23.7s-21.4,13.3-24,24s-13.2,16.8-23.7,13.7c-10.5-3.1-25.2,0.8-32.7,8.8
			c-7.5,7.9-19.8,7.9-27.4,0c-7.5-7.9-22.3-11.9-32.7-8.8c-10.5,3.1-21.1-3.1-23.7-13.7s-13.3-21.4-24-24s-16.8-13.2-13.7-23.7
			s-0.8-25.2-8.8-32.7s-7.9-19.8,0-27.4s11.9-22.3,8.8-32.7c-3.1-10.5,3.1-21.1,13.7-23.7c10.6-2.6,21.4-13.3,24-24
			c2.6-10.6,13.2-16.8,23.7-13.7C194.4,152.4,209.1,148.5,216.6,140.5z"/>
	</g>
</g>
</svg>
