<?xml version="1.0" encoding="utf-8"?>
<!-- Generator: Adobe Illustrator 19.0.0, SVG Export Plug-In . SVG Version: 6.00 Build 0)  -->
<svg version="1.1" id="Objects" xmlns="http://www.w3.org/2000/svg" xmlns:xlink="http://www.w3.org/1999/xlink" x="0px" y="0px"
	 viewBox="-92 292.8 410.3 256.1" style="enable-background:new -92 292.8 410.3 256.1;" xml:space="preserve">
<style type="text/css">
	.st0{opacity:0.16;fill:#C4BAAF;enable-background:new    ;}
</style>
<path class="st0" d="M184,482.2c10.1,0.6,15.9,4.3,22.6,12.5c0,0-12.3,3.6-19.4,1.1c-7.2-2.5-12.1-6-17-14.5
	C175.3,484.3,178.7,481.9,184,482.2z M207.6,512.3c7.3,1.6,19.1-3.3,19.1-3.3c-7.5-7.4-13.6-10.5-23.7-9.9
	c-5.2,0.3-8.3,3.1-13.7,0.7C195,507.7,200.3,510.6,207.6,512.3z M153.1,460.6c3.9,9.1,8.5,13.1,15.4,16.4s19.5,1.1,19.5,1.1
	c-5.8-8.9-11.3-13.3-21.3-15C161.4,462.2,157.8,464.3,153.1,460.6z M253.2,537.9c7.5,0.1,18-7.3,18-7.3c-8.9-5.6-15.6-7.2-25.3-4.5
	c-5,1.4-7.4,4.8-13.2,3.7C240,536.2,245.7,537.9,253.2,537.9z M144,442.3c2.7,7.8,6.1,11.4,11.5,14.7c5.4,3.3,16,2.6,16,2.6
	C163.8,443.4,154.8,450.7,144,442.3z M248.4,521c-8.2-6.5-14.7-8.9-24.6-7.2c-5.1,0.9-7.8,4-13.5,2.2c6.5,7.2,12,9.4,19.5,10.3
	C237.2,527.2,248.4,521,248.4,521z M272.6,526.7c0,0-2.8-12.1-7.2-17.2c-4.4-5-8.3-7.8-16.5-9.7
	C258.7,511.8,250.5,524.1,272.6,526.7z M225.7,487.2c-3.3-5.9-6.5-9.5-14.1-13.1c7.1,13.8-3.7,24,17.4,31.4
	C229,505.5,228.9,493,225.7,487.2z M229.6,488c8.5,13-1.1,24.3,20.6,29.3c0,0-1.5-12.4-5.3-17.9S237.6,490.7,229.6,488z
	 M209.1,491.5c0,0,1.2-12.5-1.4-18.7c-2.5-6.2-5.4-10.1-12.6-14.6C200.7,472.7,188.9,481.8,209.1,491.5z M174.2,457.4
	c0,0,3.1-10,2-15.6s-2.8-9.4-8.1-14.4C170,440.4,159.6,446.2,174.2,457.4z M190.9,475.3c0,0,2.5-12.3,0.6-18.8
	c-2-6.5-4.4-10.8-11.1-16.1C184.4,455.6,171.7,463.3,190.9,475.3z M162,443.9c0,0,1.2-2.6,0.8-8.1c-0.7-9.6-5.4-11.8-12.1-17.2
	c-2.2-1.7-7.1-6.9-7.1-6.9s1.2,5.8,1.4,10c0.4,8.7,0.5,14.7,9.1,19.7C159.1,444.3,162,443.9,162,443.9z M213.2,570.6
	c6.1,5,10.8,6.2,16.9,6c6-0.2,14.2-6.4,14.2-6.4C229.7,561.3,226.2,571.9,213.2,570.6z M232.9,579c6.5,4.3,11.3,5,17.3,4.1
	c6-0.8,13.4-7.9,13.4-7.9C248.2,567.9,245.9,578.8,232.9,579z M194.4,560.1c5.6,5.7,10.2,7.4,16.3,7.9c6.1,0.5,14.9-4.8,14.9-4.8
	C212,552.7,207.2,562.9,194.4,560.1z M274,589.1c7.2,2.7,12,2.3,17.7,0.2s11.4-10.6,11.4-10.6C286.5,574.9,286.7,586,274,589.1z
	 M182.4,548.9c4.2,5,7.8,6.8,12.8,7.7c5,1,12.8-2.6,12.8-2.6C197.9,544,193,551.4,182.4,548.9z M253.2,585.1
	c6.9,3.6,11.7,3.7,17.6,2.2c5.9-1.4,12.5-9.3,12.5-9.3C267.1,572.4,266.1,583.5,253.2,585.1z M277.5,562
	c10.4,6.5,8.6,17.9,25.5,13.4c0,0-5.5-8.4-10.3-10.9C288,562,284.3,561,277.5,562z M264.3,571.9c0,0-3.7-9.3-7.8-12.8
	s-7.5-5.3-14.3-5.8C251,562,246.7,572.7,264.3,571.9z M283.6,574.7c0,0-4.6-8.9-9.1-11.9s-8-4.4-14.8-4.2
	C269.3,566.2,266.3,577.4,283.6,574.7z M245.4,567c0,0-2.7-9.7-6.4-13.6c-3.8-3.9-7-6-13.7-7.3C233.1,555.7,227.7,565.9,245.4,567z
	 M209.4,551.6c0,0-0.5-8.4-3-12.3c-2.4-3.9-4.8-6.2-10.2-8.5C200.6,540.1,195.6,547.8,209.4,551.6z M226.9,560.2
	c0,0-1.6-10-4.9-14.3c-3.3-4.4-6.3-6.8-12.9-8.9C216,547.4,209.5,557,226.9,560.2z M180.6,529.1c-2.1-0.6-7.3-3.1-7.3-3.1
	s2.6,4,3.9,7.1c2.8,6.5,4.6,10.9,12.5,12.2c4.5,0.7,6.6-0.4,6.6-0.4s0.2-2.3-1.7-6.3C191.3,531.7,187.1,531.3,180.6,529.1z
	 M295.1,590.8c7.6,1.9,12.3,1,17.7-1.7c3.9-2,8.1-8.2,9.9-11.5c21.2-4,40.3-10.4,58.7-20c1-0.2,2.1-0.3,3.1-0.5
	c4.9-0.9,9.8-1.9,14.8-3.1c4.9-1.2,10-2.6,15-4c2.5-0.7,5.1-1.4,7.6-2.2s5.1-1.6,7.6-2.4c10.1-3.3,20.3-6.1,30.7-8.3
	c10.4-2.1,20.9-3.5,31.2-3.3s20.3,1.9,28.7,6.4c4.1,2.2,7.9,5,11,8.3c1.5,1.7,2.9,3.4,4.2,5.3c1.2,1.9,2.4,3.8,3.3,5.8
	c0.5,1,0.9,2,1.4,3c0.4,1,0.9,2,1.2,3c0.6,1.8,1,3.9,1.1,5.9c0.3,4-0.3,8-1.4,11.7c-1.1,3.7-2.8,7-4.8,9.9c-2.1,2.9-4.5,5.3-7,7.2
	c-5.1,3.8-10.5,5.7-15.1,6.5c-4.6,0.9-8.3,0.9-10.8,0.9c-1.3,0-2.2-0.1-2.9-0.1c-0.7-0.1-1-0.1-1-0.1s0.4,0.1,1,0.2
	c0.7,0.1,1.6,0.3,2.9,0.4c2.5,0.2,6.2,0.5,11,0c2.4-0.3,5-0.8,7.8-1.7c2.8-0.9,5.7-2.2,8.6-4.1c5.7-3.7,11.1-9.8,14-17.9
	c1.5-4,2.3-8.4,2.2-13.1c0-2.4-0.3-4.8-1-7.2c-0.3-1.2-0.7-2.3-1.1-3.4c-0.5-1.1-0.9-2.2-1.4-3.3c-0.9-2.3-2.1-4.4-3.4-6.6
	c-1.3-2.2-2.8-4.2-4.5-6.2c-3.4-3.9-7.6-7.4-12.3-10c-4.7-2.7-9.9-4.6-15.2-5.8c-5.3-1.3-10.8-1.9-16.3-2.1c-11-0.3-22,1-32.8,3.2
	s-21.3,5.4-31.4,8.7c-9.7,3.2-19.3,6.3-28.6,8.8c0.2-0.2,0.5-0.3,0.7-0.5c-0.3,0.2-0.6,0.3-0.9,0.5c-0.2,0-0.5,0.1-0.8,0.2
	c-4.8,1.3-9.6,2.4-14.3,3.4c-4.7,1-9.4,1.9-13.9,2.5c-4.6,0.7-9,1.2-13.3,1.5c-4.3,0.4-8.5,0.6-12.5,0.7c-4,0.1-7.8,0-11.5-0.1
	s-7.1-0.3-10.4-0.5c-6.6-0.5-12.2-1.2-16.9-1.9c-2.3-0.4-4.4-0.7-6.2-1c-1.8-0.3-3.4-0.6-4.6-0.8c-2.5-0.5-3.8-0.7-3.8-0.7
	s1.3,0.4,3.7,1.1c1.2,0.3,2.7,0.7,4.5,1.2c1.7,0.5,3.8,1,6.1,1.5c4.6,1,10.2,2.2,16.8,3.2c3.3,0.5,6.8,0.9,10.5,1.3
	s7.6,0.6,11.7,0.8c4.1,0.1,8.4,0.1,12.8,0c4.5-0.1,9-0.4,13.7-0.9c2.6-0.2,5.1-0.5,7.7-0.9c-17.6,7.9-35.8,12.9-55.8,15.6
	c-2.5-2.7-7.3-8-10.9-9.4c-5.1-2-8.9-2.6-15.4-0.9c6.5,2.1,5.9,11.4,15.2,13.4C302.1,579.9,302.7,588.9,295.1,590.8z M235.6,448.5
	c2,7.6,5.2,11.3,10.2,14.7c5,3.4,15.3,3.1,15.3,3.1C254.4,450.6,245.3,457.1,235.6,448.5z M246.7,466.8c2.8,7.3,6.3,10.6,11.7,13.4
	c5.3,2.8,15.5,1.4,15.5,1.4C265.5,466.7,257.3,474.2,246.7,466.8z M226.5,429c1.2,7.9,3.9,11.9,8.6,15.9c4.6,3.9,14.9,4.8,14.9,4.8
	C245,433.2,235.2,438.7,226.5,429z M274.2,499c4.3,6.5,8.5,8.9,14.3,10.5s15.4-2,15.4-2C292.6,494.7,286.3,503.8,274.2,499z
	 M223.2,412.8c0.4,6.6,2.4,10.2,5.9,13.8c3.5,3.7,11.9,5.3,11.9,5.3C238.7,417.9,230.3,421.1,223.2,412.8z M272.6,495.6
	c5.7,2.2,15.6-0.3,15.6-0.3c-9.9-13.9-17.2-5.5-28.6-11.7C263.2,490.6,267,493.5,272.6,495.6z M305.8,504.7c0,0,0.3-10-2.1-14.8
	s-4.8-7.8-10.8-10.9C297.6,490.4,289.4,498.5,305.8,504.7z M276.3,479.2c0,0,2.5-9.7,1.2-14.9c-1.3-5.2-3.1-8.6-8.3-13
	C271.3,463.5,261.6,469.7,276.3,479.2z M290.3,492.8c0,0,1.5-9.9-0.4-15c-1.9-5-4-8.2-9.6-12C283.7,477.6,274.7,484.9,290.3,492.8z
	 M263.7,464.3c0,0,3.5-9.4,2.8-14.8c-0.7-5.3-2.1-8.9-6.8-13.9C260.5,448,250.1,453.1,263.7,464.3z M248.3,419.1
	c0.3-4.6-0.3-7.9-3.4-12.9c-1.8,10.1-10.4,13.5-1.4,24.6C243.5,430.8,248,423.7,248.3,419.1z M252.8,447.9c0,0,4.5-8.9,4.3-14.4
	c-0.1-5.4-1.2-9.2-5.3-14.7C251.3,431.2,240.5,435.3,252.8,447.9z M239.1,411.7c1.4-7.7-1.8-10.3-5.9-15.9c-1.3-1.8-4.1-6.8-4.1-6.8
	s-0.3,4.8-1,8.1c-1.5,6.9-2.6,11.6,3.1,17.2c3.3,3.2,5.6,3.5,5.6,3.5S238.3,416,239.1,411.7z M542.8,538.4c1.7,2.1,3.1,4.2,4.2,6.2
	s2.1,3.9,2.9,5.7c1.5,3.6,2.5,6.5,3.1,8.5s0.9,3.1,0.9,3.1s0-0.3-0.1-0.8c0-0.6-0.1-1.4-0.3-2.4c-0.3-2.1-0.9-5.2-2.1-9
	c-1.2-3.8-3-8.3-6.1-13.1c-3-4.8-7.5-9.6-13.3-13.6c-5.8-4-12.9-7.1-20.6-9.1c-3.8-1-7.9-1.8-12-2.3c-4.2-0.6-8.4-0.9-12.7-1
	l-1.6-0.2l-0.9-0.2h-0.8h-1.6l-1.7,0.2c-2.3,0.1-4.5,0.3-6.7,0.5c-4.5,0.5-9,1.2-13.4,2.1c-8.9,1.9-17.6,4.5-26.2,7.4
	c-8.6,2.8-17,5.9-25.4,8.6c-8.1,2.6-16.2,5-24.1,6.8c-21.7-3.7-41.8-10.6-61.9-21.3c-0.5-3.7-1.3-10.7-3.4-14
	c-2.9-4.6-5.6-7.2-11.9-9.7c4,5.5-1.9,12.8,4.5,19.8c-9.1-2.6-13.8,5.1-21,2.1c4.9,5.9,9.3,8,15.3,8.9c4.3,0.7,11.3-1.9,14.7-3.5
	c20.1,9.5,40.1,15.5,61.4,18.3c-7.5,1.6-14.9,2.9-22,3.6c-2.1,0.2-4.1,0.3-6.1,0.5c-19.5,0-38.8-2.4-58.5-7.2
	c-1.7-4.3-4.9-12.5-8.5-15.8c-4.9-4.6-9.1-6.9-17.4-7.9c6.5,6.8,3.4,16.5,11.7,22.4c-9.8,0.2-15,9.6-24.6,9.2
	c7.9,5.6,13.8,6.7,21.3,5.9c5.4-0.5,13-5.9,16.6-8.9c4.7,0.9,9.3,1.7,13.9,2.3c3.3,0.7,7.2,1.6,11.5,2.3c5.4,0.9,11.6,1.8,18.4,2.2
	s14.2,0.6,22,0.1c7.9-0.5,16.1-1.5,24.5-3.1c8.4-1.7,17-3.9,25.5-6.5c8.6-2.6,17.1-5.5,25.6-8.3s16.9-5.4,25.4-7.2
	c4.2-0.9,8.4-1.6,12.6-2.1c2.1-0.2,4.2-0.4,6.2-0.5l1.5-0.1h1.6h0.8h0.7h1.5c8.3-0.1,16.2,0.7,23.5,2.2c7.3,1.5,13.9,4.1,19.5,7.3
	C534.8,530,539.2,534.1,542.8,538.4z"/>
</svg>
